<svg id="visual" viewBox="0 0 900 600" width="900" height="600" xmlns="http://www.w3.org/2000/svg" xmlns:xlink="http://www.w3.org/1999/xlink" version="1.1"><rect width="900" height="600" fill="#F6F6F6"></rect><g><g transform="translate(473 436)"><path d="M0 -13.1L11.4 -6.6L11.4 6.6L0 13.1L-11.4 6.6L-11.4 -6.6Z" fill="none" stroke="#000629" stroke-width="1"></path></g><g transform="translate(375 37)"><path d="M0 -10L8.7 -5L8.7 5L0 10L-8.7 5L-8.7 -5Z" fill="none" stroke="#000629" stroke-width="1"></path></g><g transform="translate(816 477)"><path d="M0 -12L10.4 -6L10.4 6L0 12L-10.4 6L-10.4 -6Z" fill="none" stroke="#000629" stroke-width="1"></path></g><g transform="translate(28 67)"><path d="M0 -8L6.9 -4L6.9 4L0 8L-6.9 4L-6.9 -4Z" stroke="#000629" fill="none" stroke-width="1"></path></g><g transform="translate(787 321)"><path d="M0 -7L6.1 -3.5L6.1 3.5L0 7L-6.1 3.5L-6.1 -3.5Z" stroke="#000629" fill="none" stroke-width="1"></path></g><g transform="translate(149 204)"><path d="M0 -10L8.7 -5L8.7 5L0 10L-8.7 5L-8.7 -5Z" stroke="#000629" fill="none" stroke-width="1"></path></g><g transform="translate(648 417)"><path d="M0 -10L8.7 -5L8.7 5L0 10L-8.7 5L-8.7 -5Z" stroke="#000629" fill="none" stroke-width="1"></path></g><g transform="translate(102 82)"><path d="M0 -7L6.1 -3.5L6.1 3.5L0 7L-6.1 3.5L-6.1 -3.5Z" stroke="#000629" fill="none" stroke-width="1"></path></g><g transform="translate(258 480)"><path d="M0 -11L9.5 -5.5L9.5 5.5L0 11L-9.5 5.5L-9.5 -5.5Z" stroke="#000629" fill="none" stroke-width="1"></path></g><g transform="translate(482 97)"><path d="M0 -9L7.8 -4.5L7.8 4.5L0 9L-7.8 4.5L-7.8 -4.5Z" stroke="#000629" fill="none" stroke-width="1"></path></g><g transform="translate(641 207)"><path d="M0 -10L8.7 -5L8.7 5L0 10L-8.7 5L-8.7 -5Z" stroke="#000629" fill="none" stroke-width="1"></path></g><g transform="translate(530 415)"><path d="M0 -12L10.4 -6L10.4 6L0 12L-10.4 6L-10.4 -6Z" stroke="#000629" fill="none" stroke-width="1"></path></g><g transform="translate(697 488)"><path d="M0 -10L8.7 -5L8.7 5L0 10L-8.7 5L-8.7 -5Z" stroke="#000629" fill="none" stroke-width="1"></path></g><g transform="translate(713 251)"><path d="M0 -9L7.8 -4.5L7.8 4.5L0 9L-7.8 4.5L-7.8 -4.5Z" stroke="#000629" fill="none" stroke-width="1"></path></g><g transform="translate(305 281)"><path d="M0 -9L7.8 -4.5L7.8 4.5L0 9L-7.8 4.5L-7.8 -4.5Z" stroke="#000629" fill="none" stroke-width="1"></path></g><g transform="translate(103 314)"><path d="M0 -8L6.9 -4L6.9 4L0 8L-6.9 4L-6.9 -4Z" stroke="#000629" fill="none" stroke-width="1"></path></g><g transform="translate(115 557)"><path d="M0 -7L6.1 -3.5L6.1 3.5L0 7L-6.1 3.5L-6.1 -3.5Z" stroke="#000629" fill="none" stroke-width="1"></path></g><g transform="translate(521 545)"><path d="M0 -12L10.4 -6L10.4 6L0 12L-10.4 6L-10.4 -6Z" stroke="#000629" fill="none" stroke-width="1"></path></g><g transform="translate(758 348)"><path d="M0 -9L7.8 -4.5L7.8 4.5L0 9L-7.8 4.5L-7.8 -4.5Z" stroke="#000629" fill="none" stroke-width="1"></path></g><g transform="translate(265 12)"><path d="M0 -7L6.1 -3.5L6.1 3.5L0 7L-6.1 3.5L-6.1 -3.5Z" stroke="#000629" fill="none" stroke-width="1"></path></g><g transform="translate(879 519)"><path d="M0 -9L7.8 -4.5L7.8 4.5L0 9L-7.8 4.5L-7.8 -4.5Z" stroke="#000629" fill="none" stroke-width="1"></path></g><g transform="translate(663 440)"><path d="M0 -8L6.9 -4L6.9 4L0 8L-6.9 4L-6.9 -4Z" stroke="#000629" fill="none" stroke-width="1"></path></g><g transform="translate(204 72)"><path d="M0 -7L6.1 -3.5L6.1 3.5L0 7L-6.1 3.5L-6.1 -3.5Z" stroke="#000629" fill="none" stroke-width="1"></path></g><g transform="translate(222 274)"><path d="M0 -8L6.9 -4L6.9 4L0 8L-6.9 4L-6.9 -4Z" stroke="#000629" fill="none" stroke-width="1"></path></g><g transform="translate(322 194)"><path d="M0 -6L5.2 -3L5.2 3L0 6L-5.2 3L-5.2 -3Z" stroke="#000629" fill="none" stroke-width="1"></path></g><g transform="translate(322 524)"><path d="M0 -10L8.7 -5L8.7 5L0 10L-8.7 5L-8.7 -5Z" stroke="#000629" fill="none" stroke-width="1"></path></g><g transform="translate(59 264)"><path d="M0 -7L6.1 -3.5L6.1 3.5L0 7L-6.1 3.5L-6.1 -3.5Z" stroke="#000629" fill="none" stroke-width="1"></path></g><g transform="translate(665 126)"><path d="M0 -12L10.4 -6L10.4 6L0 12L-10.4 6L-10.4 -6Z" stroke="#000629" fill="none" stroke-width="1"></path></g><g transform="translate(350 177)"><path d="M0 -12L10.4 -6L10.4 6L0 12L-10.4 6L-10.4 -6Z" stroke="#000629" fill="none" stroke-width="1"></path></g><g transform="translate(307 50)"><path d="M0 -6L5.2 -3L5.2 3L0 6L-5.2 3L-5.2 -3Z" stroke="#000629" fill="none" stroke-width="1"></path></g><g transform="translate(413 552)"><path d="M0 -8L6.9 -4L6.9 4L0 8L-6.9 4L-6.9 -4Z" stroke="#000629" fill="none" stroke-width="1"></path></g><g transform="translate(344 118)"><path d="M0 -9L7.8 -4.5L7.8 4.5L0 9L-7.8 4.5L-7.8 -4.5Z" stroke="#000629" fill="none" stroke-width="1"></path></g><g transform="translate(806 24)"><path d="M0 -10L8.7 -5L8.7 5L0 10L-8.7 5L-8.7 -5Z" stroke="#000629" fill="none" stroke-width="1"></path></g><g transform="translate(34 249)"><path d="M0 -7L6.1 -3.5L6.1 3.5L0 7L-6.1 3.5L-6.1 -3.5Z" stroke="#000629" fill="none" stroke-width="1"></path></g><g transform="translate(494 33)"><path d="M0 -7L6.1 -3.5L6.1 3.5L0 7L-6.1 3.5L-6.1 -3.5Z" stroke="#000629" fill="none" stroke-width="1"></path></g><g transform="translate(793 398)"><path d="M0 -11L9.5 -5.5L9.5 5.5L0 11L-9.5 5.5L-9.5 -5.5Z" stroke="#000629" fill="none" stroke-width="1"></path></g><g transform="translate(156 594)"><path d="M0 -9L7.8 -4.5L7.8 4.5L0 9L-7.8 4.5L-7.8 -4.5Z" stroke="#000629" fill="none" stroke-width="1"></path></g><g transform="translate(11 445)"><path d="M0 -10L8.7 -5L8.7 5L0 10L-8.7 5L-8.7 -5Z" stroke="#000629" fill="none" stroke-width="1"></path></g><g transform="translate(699 149)"><path d="M0 -12L10.4 -6L10.4 6L0 12L-10.4 6L-10.4 -6Z" stroke="#000629" fill="none" stroke-width="1"></path></g><g transform="translate(752 566)"><path d="M0 -9L7.8 -4.5L7.8 4.5L0 9L-7.8 4.5L-7.8 -4.5Z" stroke="#000629" fill="none" stroke-width="1"></path></g><g transform="translate(449 322)"><path d="M0 -11L9.5 -5.5L9.5 5.5L0 11L-9.5 5.5L-9.5 -5.5Z" stroke="#000629" fill="none" stroke-width="1"></path></g><g transform="translate(628 371)"><path d="M0 -10L8.7 -5L8.7 5L0 10L-8.7 5L-8.7 -5Z" stroke="#000629" fill="none" stroke-width="1"></path></g><g transform="translate(122 39)"><path d="M0 -10L8.7 -5L8.7 5L0 10L-8.7 5L-8.7 -5Z" stroke="#000629" fill="none" stroke-width="1"></path></g><g transform="translate(652 78)"><path d="M0 -9L7.8 -4.5L7.8 4.5L0 9L-7.8 4.5L-7.8 -4.5Z" stroke="#000629" fill="none" stroke-width="1"></path></g><g transform="translate(689 232)"><path d="M0 -11L9.5 -5.5L9.5 5.5L0 11L-9.5 5.5L-9.5 -5.5Z" stroke="#000629" fill="none" stroke-width="1"></path></g><g transform="translate(598 545)"><path d="M0 -6L5.2 -3L5.2 3L0 6L-5.2 3L-5.2 -3Z" stroke="#000629" fill="none" stroke-width="1"></path></g><g transform="translate(119 392)"><path d="M0 -7L6.1 -3.5L6.1 3.5L0 7L-6.1 3.5L-6.1 -3.5Z" stroke="#000629" fill="none" stroke-width="1"></path></g><g transform="translate(78 188)"><path d="M0 -10L8.7 -5L8.7 5L0 10L-8.7 5L-8.7 -5Z" stroke="#000629" fill="none" stroke-width="1"></path></g><g transform="translate(312 365)"><path d="M0 -7L6.1 -3.5L6.1 3.5L0 7L-6.1 3.5L-6.1 -3.5Z" stroke="#000629" fill="none" stroke-width="1"></path></g><g transform="translate(47 523)"><path d="M0 -10L8.7 -5L8.7 5L0 10L-8.7 5L-8.7 -5Z" stroke="#000629" fill="none" stroke-width="1"></path></g><g transform="translate(764 445)"><path d="M0 -8L6.9 -4L6.9 4L0 8L-6.9 4L-6.9 -4Z" stroke="#000629" fill="none" stroke-width="1"></path></g><g transform="translate(724 311)"><path d="M0 -8L6.9 -4L6.9 4L0 8L-6.9 4L-6.9 -4Z" stroke="#000629" fill="none" stroke-width="1"></path></g><g transform="translate(300 591)"><path d="M0 -7L6.1 -3.5L6.1 3.5L0 7L-6.1 3.5L-6.1 -3.5Z" stroke="#000629" fill="none" stroke-width="1"></path></g><g transform="translate(370 579)"><path d="M0 -9L7.8 -4.5L7.8 4.5L0 9L-7.8 4.5L-7.8 -4.5Z" stroke="#000629" fill="none" stroke-width="1"></path></g><g transform="translate(832 86)"><path d="M0 -11L9.5 -5.5L9.5 5.5L0 11L-9.5 5.5L-9.5 -5.5Z" stroke="#000629" fill="none" stroke-width="1"></path></g><g transform="translate(446 403)"><path d="M0 -12L10.4 -6L10.4 6L0 12L-10.4 6L-10.4 -6Z" stroke="#000629" fill="none" stroke-width="1"></path></g><g transform="translate(659 177)"><path d="M0 -12L10.4 -6L10.4 6L0 12L-10.4 6L-10.4 -6Z" stroke="#000629" fill="none" stroke-width="1"></path></g><g transform="translate(787 82)"><path d="M0 -6L5.2 -3L5.2 3L0 6L-5.2 3L-5.2 -3Z" stroke="#000629" fill="none" stroke-width="1"></path></g><g transform="translate(391 430)"><path d="M0 -7L6.1 -3.5L6.1 3.5L0 7L-6.1 3.5L-6.1 -3.5Z" stroke="#000629" fill="none" stroke-width="1"></path></g><g transform="translate(898 98)"><path d="M0 -12L10.4 -6L10.4 6L0 12L-10.4 6L-10.4 -6Z" stroke="#000629" fill="none" stroke-width="1"></path></g><g transform="translate(542 34)"><path d="M0 -11L9.5 -5.5L9.5 5.5L0 11L-9.5 5.5L-9.5 -5.5Z" stroke="#000629" fill="none" stroke-width="1"></path></g><g transform="translate(383 478)"><path d="M0 -6L5.2 -3L5.2 3L0 6L-5.2 3L-5.2 -3Z" stroke="#000629" fill="none" stroke-width="1"></path></g><g transform="translate(197 375)"><path d="M0 -11L9.5 -5.5L9.5 5.5L0 11L-9.5 5.5L-9.5 -5.5Z" stroke="#000629" fill="none" stroke-width="1"></path></g><g transform="translate(655 565)"><path d="M0 -6L5.2 -3L5.2 3L0 6L-5.2 3L-5.2 -3Z" stroke="#000629" fill="none" stroke-width="1"></path></g><g transform="translate(562 184)"><path d="M0 -9L7.8 -4.5L7.8 4.5L0 9L-7.8 4.5L-7.8 -4.5Z" stroke="#000629" fill="none" stroke-width="1"></path></g><g transform="translate(641 535)"><path d="M0 -7L6.1 -3.5L6.1 3.5L0 7L-6.1 3.5L-6.1 -3.5Z" stroke="#000629" fill="none" stroke-width="1"></path></g><g transform="translate(863 425)"><path d="M0 -7L6.1 -3.5L6.1 3.5L0 7L-6.1 3.5L-6.1 -3.5Z" stroke="#000629" fill="none" stroke-width="1"></path></g><g transform="translate(196 425)"><path d="M0 -7L6.1 -3.5L6.1 3.5L0 7L-6.1 3.5L-6.1 -3.5Z" stroke="#000629" fill="none" stroke-width="1"></path></g><g transform="translate(603 216)"><path d="M0 -12L10.4 -6L10.4 6L0 12L-10.4 6L-10.4 -6Z" stroke="#000629" fill="none" stroke-width="1"></path></g><g transform="translate(124 518)"><path d="M0 -10L8.7 -5L8.7 5L0 10L-8.7 5L-8.7 -5Z" stroke="#000629" fill="none" stroke-width="1"></path></g><g transform="translate(541 242)"><path d="M0 -6L5.2 -3L5.2 3L0 6L-5.2 3L-5.2 -3Z" stroke="#000629" fill="none" stroke-width="1"></path></g><g transform="translate(732 417)"><path d="M0 -11L9.5 -5.5L9.5 5.5L0 11L-9.5 5.5L-9.5 -5.5Z" stroke="#000629" fill="none" stroke-width="1"></path></g><g transform="translate(530 507)"><path d="M0 -12L10.4 -6L10.4 6L0 12L-10.4 6L-10.4 -6Z" stroke="#000629" fill="none" stroke-width="1"></path></g><g transform="translate(284 547)"><path d="M0 -8L6.9 -4L6.9 4L0 8L-6.9 4L-6.9 -4Z" stroke="#000629" fill="none" stroke-width="1"></path></g><g transform="translate(788 220)"><path d="M0 -9L7.8 -4.5L7.8 4.5L0 9L-7.8 4.5L-7.8 -4.5Z" stroke="#000629" fill="none" stroke-width="1"></path></g><g transform="translate(429 423)"><path d="M0 -8L6.9 -4L6.9 4L0 8L-6.9 4L-6.9 -4Z" stroke="#000629" fill="none" stroke-width="1"></path></g><g transform="translate(645 272)"><path d="M0 -12L10.4 -6L10.4 6L0 12L-10.4 6L-10.4 -6Z" stroke="#000629" fill="none" stroke-width="1"></path></g><g transform="translate(60 398)"><path d="M0 -8L6.9 -4L6.9 4L0 8L-6.9 4L-6.9 -4Z" stroke="#000629" fill="none" stroke-width="1"></path></g><g transform="translate(424 94)"><path d="M0 -9L7.8 -4.5L7.8 4.5L0 9L-7.8 4.5L-7.8 -4.5Z" stroke="#000629" fill="none" stroke-width="1"></path></g><g transform="translate(263 67)"><path d="M0 -8L6.9 -4L6.9 4L0 8L-6.9 4L-6.9 -4Z" stroke="#000629" fill="none" stroke-width="1"></path></g><g transform="translate(189 317)"><path d="M0 -10L8.7 -5L8.7 5L0 10L-8.7 5L-8.7 -5Z" stroke="#000629" fill="none" stroke-width="1"></path></g><g transform="translate(113 589)"><path d="M0 -12L10.4 -6L10.4 6L0 12L-10.4 6L-10.4 -6Z" stroke="#000629" fill="none" stroke-width="1"></path></g><g transform="translate(287 325)"><path d="M0 -11L9.5 -5.5L9.5 5.5L0 11L-9.5 5.5L-9.5 -5.5Z" stroke="#000629" fill="none" stroke-width="1"></path></g><g transform="translate(202 154)"><path d="M0 -12L10.4 -6L10.4 6L0 12L-10.4 6L-10.4 -6Z" stroke="#000629" fill="none" stroke-width="1"></path></g><g transform="translate(648 338)"><path d="M0 -8L6.9 -4L6.9 4L0 8L-6.9 4L-6.9 -4Z" stroke="#000629" fill="none" stroke-width="1"></path></g><g transform="translate(289 403)"><path d="M0 -9L7.8 -4.5L7.8 4.5L0 9L-7.8 4.5L-7.8 -4.5Z" stroke="#000629" fill="none" stroke-width="1"></path></g><g transform="translate(450 59)"><path d="M0 -10L8.7 -5L8.7 5L0 10L-8.7 5L-8.7 -5Z" stroke="#000629" fill="none" stroke-width="1"></path></g><g transform="translate(170 100)"><path d="M0 -9L7.8 -4.5L7.8 4.5L0 9L-7.8 4.5L-7.8 -4.5Z" stroke="#000629" fill="none" stroke-width="1"></path></g><g transform="translate(709 40)"><path d="M0 -11L9.5 -5.5L9.5 5.5L0 11L-9.5 5.5L-9.5 -5.5Z" stroke="#000629" fill="none" stroke-width="1"></path></g><g transform="translate(588 332)"><path d="M0 -10L8.7 -5L8.7 5L0 10L-8.7 5L-8.7 -5Z" stroke="#000629" fill="none" stroke-width="1"></path></g><g transform="translate(316 562)"><path d="M0 -8L6.9 -4L6.9 4L0 8L-6.9 4L-6.9 -4Z" stroke="#000629" fill="none" stroke-width="1"></path></g><g transform="translate(681 53)"><path d="M0 -11L9.5 -5.5L9.5 5.5L0 11L-9.5 5.5L-9.5 -5.5Z" stroke="#000629" fill="none" stroke-width="1"></path></g><g transform="translate(66 301)"><path d="M0 -10L8.7 -5L8.7 5L0 10L-8.7 5L-8.7 -5Z" stroke="#000629" fill="none" stroke-width="1"></path></g><g transform="translate(504 120)"><path d="M0 -9L7.8 -4.5L7.8 4.5L0 9L-7.8 4.5L-7.8 -4.5Z" stroke="#000629" fill="none" stroke-width="1"></path></g><g transform="translate(594 267)"><path d="M0 -10L8.7 -5L8.7 5L0 10L-8.7 5L-8.7 -5Z" stroke="#000629" fill="none" stroke-width="1"></path></g><g transform="translate(265 298)"><path d="M0 -10L8.7 -5L8.7 5L0 10L-8.7 5L-8.7 -5Z" stroke="#000629" fill="none" stroke-width="1"></path></g><g transform="translate(569 449)"><path d="M0 -8L6.9 -4L6.9 4L0 8L-6.9 4L-6.9 -4Z" stroke="#000629" fill="none" stroke-width="1"></path></g><g transform="translate(434 271)"><path d="M0 -11L9.5 -5.5L9.5 5.5L0 11L-9.5 5.5L-9.5 -5.5Z" stroke="#000629" fill="none" stroke-width="1"></path></g><g transform="translate(347 5)"><path d="M0 -11L9.5 -5.5L9.5 5.5L0 11L-9.5 5.5L-9.5 -5.5Z" stroke="#000629" fill="none" stroke-width="1"></path></g><g transform="translate(730 532)"><path d="M0 -12L10.4 -6L10.4 6L0 12L-10.4 6L-10.4 -6Z" stroke="#000629" fill="none" stroke-width="1"></path></g><g transform="translate(33 406)"><path d="M0 -6L5.2 -3L5.2 3L0 6L-5.2 3L-5.2 -3Z" stroke="#000629" fill="none" stroke-width="1"></path></g><g transform="translate(778 506)"><path d="M0 -11L9.5 -5.5L9.5 5.5L0 11L-9.5 5.5L-9.5 -5.5Z" stroke="#000629" fill="none" stroke-width="1"></path></g><g transform="translate(650 495)"><path d="M0 -9L7.8 -4.5L7.8 4.5L0 9L-7.8 4.5L-7.8 -4.5Z" stroke="#000629" fill="none" stroke-width="1"></path></g><g transform="translate(719 280)"><path d="M0 -8L6.9 -4L6.9 4L0 8L-6.9 4L-6.9 -4Z" stroke="#000629" fill="none" stroke-width="1"></path></g><g transform="translate(266 103)"><path d="M0 -11L9.5 -5.5L9.5 5.5L0 11L-9.5 5.5L-9.5 -5.5Z" stroke="#000629" fill="none" stroke-width="1"></path></g><g transform="translate(5 240)"><path d="M0 -8L6.9 -4L6.9 4L0 8L-6.9 4L-6.9 -4Z" stroke="#000629" fill="none" stroke-width="1"></path></g><g transform="translate(94 458)"><path d="M0 -8L6.9 -4L6.9 4L0 8L-6.9 4L-6.9 -4Z" stroke="#000629" fill="none" stroke-width="1"></path></g><g transform="translate(849 14)"><path d="M0 -10L8.7 -5L8.7 5L0 10L-8.7 5L-8.7 -5Z" stroke="#000629" fill="none" stroke-width="1"></path></g><g transform="translate(146 319)"><path d="M0 -10L8.7 -5L8.7 5L0 10L-8.7 5L-8.7 -5Z" stroke="#000629" fill="none" stroke-width="1"></path></g><g transform="translate(356 344)"><path d="M0 -8L6.9 -4L6.9 4L0 8L-6.9 4L-6.9 -4Z" stroke="#000629" fill="none" stroke-width="1"></path></g><g transform="translate(123 261)"><path d="M0 -11L9.5 -5.5L9.5 5.5L0 11L-9.5 5.5L-9.5 -5.5Z" stroke="#000629" fill="none" stroke-width="1"></path></g><g transform="translate(360 491)"><path d="M0 -11L9.5 -5.5L9.5 5.5L0 11L-9.5 5.5L-9.5 -5.5Z" stroke="#000629" fill="none" stroke-width="1"></path></g><g transform="translate(618 70)"><path d="M0 -12L10.4 -6L10.4 6L0 12L-10.4 6L-10.4 -6Z" stroke="#000629" fill="none" stroke-width="1"></path></g><g transform="translate(175 395)"><path d="M0 -7L6.1 -3.5L6.1 3.5L0 7L-6.1 3.5L-6.1 -3.5Z" stroke="#000629" fill="none" stroke-width="1"></path></g><g transform="translate(122 209)"><path d="M0 -8L6.9 -4L6.9 4L0 8L-6.9 4L-6.9 -4Z" stroke="#000629" fill="none" stroke-width="1"></path></g><g transform="translate(562 58)"><path d="M0 -11L9.5 -5.5L9.5 5.5L0 11L-9.5 5.5L-9.5 -5.5Z" stroke="#000629" fill="none" stroke-width="1"></path></g><g transform="translate(151 493)"><path d="M0 -6L5.2 -3L5.2 3L0 6L-5.2 3L-5.2 -3Z" stroke="#000629" fill="none" stroke-width="1"></path></g><g transform="translate(804 373)"><path d="M0 -11L9.5 -5.5L9.5 5.5L0 11L-9.5 5.5L-9.5 -5.5Z" stroke="#000629" fill="none" stroke-width="1"></path></g><g transform="translate(756 203)"><path d="M0 -11L9.5 -5.5L9.5 5.5L0 11L-9.5 5.5L-9.5 -5.5Z" stroke="#000629" fill="none" stroke-width="1"></path></g><g transform="translate(473 189)"><path d="M0 -8L6.9 -4L6.9 4L0 8L-6.9 4L-6.9 -4Z" stroke="#000629" fill="none" stroke-width="1"></path></g><g transform="translate(760 29)"><path d="M0 -7L6.1 -3.5L6.1 3.5L0 7L-6.1 3.5L-6.1 -3.5Z" stroke="#000629" fill="none" stroke-width="1"></path></g><g transform="translate(412 182)"><path d="M0 -10L8.7 -5L8.7 5L0 10L-8.7 5L-8.7 -5Z" stroke="#000629" fill="none" stroke-width="1"></path></g><g transform="translate(751 270)"><path d="M0 -9L7.8 -4.5L7.8 4.5L0 9L-7.8 4.5L-7.8 -4.5Z" stroke="#000629" fill="none" stroke-width="1"></path></g><g transform="translate(722 97)"><path d="M0 -10L8.7 -5L8.7 5L0 10L-8.7 5L-8.7 -5Z" stroke="#000629" fill="none" stroke-width="1"></path></g><g transform="translate(223 554)"><path d="M0 -6L5.2 -3L5.2 3L0 6L-5.2 3L-5.2 -3Z" stroke="#000629" fill="none" stroke-width="1"></path></g><g transform="translate(161 163)"><path d="M0 -7L6.1 -3.5L6.1 3.5L0 7L-6.1 3.5L-6.1 -3.5Z" stroke="#000629" fill="none" stroke-width="1"></path></g><g transform="translate(824 313)"><path d="M0 -10L8.7 -5L8.7 5L0 10L-8.7 5L-8.7 -5Z" stroke="#000629" fill="none" stroke-width="1"></path></g><g transform="translate(284 175)"><path d="M0 -8L6.9 -4L6.9 4L0 8L-6.9 4L-6.9 -4Z" stroke="#000629" fill="none" stroke-width="1"></path></g><g transform="translate(482 4)"><path d="M0 -12L10.4 -6L10.4 6L0 12L-10.4 6L-10.4 -6Z" stroke="#000629" fill="none" stroke-width="1"></path></g><g transform="translate(387 357)"><path d="M0 -8L6.9 -4L6.9 4L0 8L-6.9 4L-6.9 -4Z" stroke="#000629" fill="none" stroke-width="1"></path></g><g transform="translate(140 453)"><path d="M0 -9L7.8 -4.5L7.8 4.5L0 9L-7.8 4.5L-7.8 -4.5Z" stroke="#000629" fill="none" stroke-width="1"></path></g><g transform="translate(670 517)"><path d="M0 -12L10.4 -6L10.4 6L0 12L-10.4 6L-10.4 -6Z" stroke="#000629" fill="none" stroke-width="1"></path></g><g transform="translate(625 245)"><path d="M0 -11L9.5 -5.5L9.5 5.5L0 11L-9.5 5.5L-9.5 -5.5Z" stroke="#000629" fill="none" stroke-width="1"></path></g><g transform="translate(834 56)"><path d="M0 -10L8.7 -5L8.7 5L0 10L-8.7 5L-8.7 -5Z" stroke="#000629" fill="none" stroke-width="1"></path></g><g transform="translate(363 214)"><path d="M0 -11L9.5 -5.5L9.5 5.5L0 11L-9.5 5.5L-9.5 -5.5Z" stroke="#000629" fill="none" stroke-width="1"></path></g><g transform="translate(307 114)"><path d="M0 -7L6.1 -3.5L6.1 3.5L0 7L-6.1 3.5L-6.1 -3.5Z" stroke="#000629" fill="none" stroke-width="1"></path></g><g transform="translate(872 162)"><path d="M0 -8L6.9 -4L6.9 4L0 8L-6.9 4L-6.9 -4Z" stroke="#000629" fill="none" stroke-width="1"></path></g><g transform="translate(480 291)"><path d="M0 -8L6.9 -4L6.9 4L0 8L-6.9 4L-6.9 -4Z" stroke="#000629" fill="none" stroke-width="1"></path></g><g transform="translate(214 182)"><path d="M0 -11L9.5 -5.5L9.5 5.5L0 11L-9.5 5.5L-9.5 -5.5Z" stroke="#000629" fill="none" stroke-width="1"></path></g><g transform="translate(604 387)"><path d="M0 -7L6.1 -3.5L6.1 3.5L0 7L-6.1 3.5L-6.1 -3.5Z" stroke="#000629" fill="none" stroke-width="1"></path></g><g transform="translate(783 273)"><path d="M0 -11L9.5 -5.5L9.5 5.5L0 11L-9.5 5.5L-9.5 -5.5Z" stroke="#000629" fill="none" stroke-width="1"></path></g><g transform="translate(696 569)"><path d="M0 -12L10.4 -6L10.4 6L0 12L-10.4 6L-10.4 -6Z" stroke="#000629" fill="none" stroke-width="1"></path></g><g transform="translate(538 91)"><path d="M0 -12L10.4 -6L10.4 6L0 12L-10.4 6L-10.4 -6Z" stroke="#000629" fill="none" stroke-width="1"></path></g><g transform="translate(396 594)"><path d="M0 -9L7.8 -4.5L7.8 4.5L0 9L-7.8 4.5L-7.8 -4.5Z" stroke="#000629" fill="none" stroke-width="1"></path></g><g transform="translate(423 487)"><path d="M0 -6L5.2 -3L5.2 3L0 6L-5.2 3L-5.2 -3Z" stroke="#000629" fill="none" stroke-width="1"></path></g><g transform="translate(378 143)"><path d="M0 -8L6.9 -4L6.9 4L0 8L-6.9 4L-6.9 -4Z" stroke="#000629" fill="none" stroke-width="1"></path></g><g transform="translate(882 52)"><path d="M0 -6L5.2 -3L5.2 3L0 6L-5.2 3L-5.2 -3Z" stroke="#000629" fill="none" stroke-width="1"></path></g><g transform="translate(242 254)"><path d="M0 -10L8.7 -5L8.7 5L0 10L-8.7 5L-8.7 -5Z" stroke="#000629" fill="none" stroke-width="1"></path></g><g transform="translate(484 248)"><path d="M0 -8L6.9 -4L6.9 4L0 8L-6.9 4L-6.9 -4Z" stroke="#000629" fill="none" stroke-width="1"></path></g><g transform="translate(718 372)"><path d="M0 -8L6.9 -4L6.9 4L0 8L-6.9 4L-6.9 -4Z" stroke="#000629" fill="none" stroke-width="1"></path></g><g transform="translate(351 80)"><path d="M0 -10L8.7 -5L8.7 5L0 10L-8.7 5L-8.7 -5Z" stroke="#000629" fill="none" stroke-width="1"></path></g><g transform="translate(148 135)"><path d="M0 -7L6.1 -3.5L6.1 3.5L0 7L-6.1 3.5L-6.1 -3.5Z" stroke="#000629" fill="none" stroke-width="1"></path></g><g transform="translate(379 288)"><path d="M0 -11L9.5 -5.5L9.5 5.5L0 11L-9.5 5.5L-9.5 -5.5Z" stroke="#000629" fill="none" stroke-width="1"></path></g><g transform="translate(33 201)"><path d="M0 -7L6.1 -3.5L6.1 3.5L0 7L-6.1 3.5L-6.1 -3.5Z" stroke="#000629" fill="none" stroke-width="1"></path></g><g transform="translate(804 250)"><path d="M0 -11L9.5 -5.5L9.5 5.5L0 11L-9.5 5.5L-9.5 -5.5Z" stroke="#000629" fill="none" stroke-width="1"></path></g><g transform="translate(366 447)"><path d="M0 -9L7.8 -4.5L7.8 4.5L0 9L-7.8 4.5L-7.8 -4.5Z" stroke="#000629" fill="none" stroke-width="1"></path></g><g transform="translate(29 125)"><path d="M0 -8L6.9 -4L6.9 4L0 8L-6.9 4L-6.9 -4Z" stroke="#000629" fill="none" stroke-width="1"></path></g><g transform="translate(523 384)"><path d="M0 -12L10.4 -6L10.4 6L0 12L-10.4 6L-10.4 -6Z" stroke="#000629" fill="none" stroke-width="1"></path></g><g transform="translate(460 152)"><path d="M0 -10L8.7 -5L8.7 5L0 10L-8.7 5L-8.7 -5Z" stroke="#000629" fill="none" stroke-width="1"></path></g><g transform="translate(764 541)"><path d="M0 -6L5.2 -3L5.2 3L0 6L-5.2 3L-5.2 -3Z" stroke="#000629" fill="none" stroke-width="1"></path></g><g transform="translate(891 554)"><path d="M0 -11L9.5 -5.5L9.5 5.5L0 11L-9.5 5.5L-9.5 -5.5Z" stroke="#000629" fill="none" stroke-width="1"></path></g><g transform="translate(286 494)"><path d="M0 -7L6.1 -3.5L6.1 3.5L0 7L-6.1 3.5L-6.1 -3.5Z" stroke="#000629" fill="none" stroke-width="1"></path></g><g transform="translate(850 397)"><path d="M0 -12L10.4 -6L10.4 6L0 12L-10.4 6L-10.4 -6Z" stroke="#000629" fill="none" stroke-width="1"></path></g><g transform="translate(260 330)"><path d="M0 -6L5.2 -3L5.2 3L0 6L-5.2 3L-5.2 -3Z" stroke="#000629" fill="none" stroke-width="1"></path></g><g transform="translate(5 309)"><path d="M0 -12L10.4 -6L10.4 6L0 12L-10.4 6L-10.4 -6Z" stroke="#000629" fill="none" stroke-width="1"></path></g><g transform="translate(193 119)"><path d="M0 -9L7.8 -4.5L7.8 4.5L0 9L-7.8 4.5L-7.8 -4.5Z" stroke="#000629" fill="none" stroke-width="1"></path></g><g transform="translate(594 306)"><path d="M0 -7L6.1 -3.5L6.1 3.5L0 7L-6.1 3.5L-6.1 -3.5Z" stroke="#000629" fill="none" stroke-width="1"></path></g><g transform="translate(102 124)"><path d="M0 -10L8.7 -5L8.7 5L0 10L-8.7 5L-8.7 -5Z" stroke="#000629" fill="none" stroke-width="1"></path></g><g transform="translate(239 383)"><path d="M0 -10L8.7 -5L8.7 5L0 10L-8.7 5L-8.7 -5Z" stroke="#000629" fill="none" stroke-width="1"></path></g><g transform="translate(601 504)"><path d="M0 -7L6.1 -3.5L6.1 3.5L0 7L-6.1 3.5L-6.1 -3.5Z" stroke="#000629" fill="none" stroke-width="1"></path></g><g transform="translate(10 40)"><path d="M0 -10L8.7 -5L8.7 5L0 10L-8.7 5L-8.7 -5Z" stroke="#000629" fill="none" stroke-width="1"></path></g><g transform="translate(251 148)"><path d="M0 -10L8.7 -5L8.7 5L0 10L-8.7 5L-8.7 -5Z" stroke="#000629" fill="none" stroke-width="1"></path></g><g transform="translate(413 215)"><path d="M0 -9L7.8 -4.5L7.8 4.5L0 9L-7.8 4.5L-7.8 -4.5Z" stroke="#000629" fill="none" stroke-width="1"></path></g><g transform="translate(878 458)"><path d="M0 -12L10.4 -6L10.4 6L0 12L-10.4 6L-10.4 -6Z" stroke="#000629" fill="none" stroke-width="1"></path></g><g transform="translate(601 595)"><path d="M0 -6L5.2 -3L5.2 3L0 6L-5.2 3L-5.2 -3Z" stroke="#000629" fill="none" stroke-width="1"></path></g><g transform="translate(520 590)"><path d="M0 -12L10.4 -6L10.4 6L0 12L-10.4 6L-10.4 -6Z" stroke="#000629" fill="none" stroke-width="1"></path></g><g transform="translate(530 317)"><path d="M0 -8L6.9 -4L6.9 4L0 8L-6.9 4L-6.9 -4Z" stroke="#000629" fill="none" stroke-width="1"></path></g><g transform="translate(23 163)"><path d="M0 -10L8.7 -5L8.7 5L0 10L-8.7 5L-8.7 -5Z" stroke="#000629" fill="none" stroke-width="1"></path></g><g transform="translate(884 206)"><path d="M0 -7L6.1 -3.5L6.1 3.5L0 7L-6.1 3.5L-6.1 -3.5Z" stroke="#000629" fill="none" stroke-width="1"></path></g><g transform="translate(875 256)"><path d="M0 -7L6.1 -3.5L6.1 3.5L0 7L-6.1 3.5L-6.1 -3.5Z" stroke="#000629" fill="none" stroke-width="1"></path></g><g transform="translate(592 139)"><path d="M0 -7L6.1 -3.5L6.1 3.5L0 7L-6.1 3.5L-6.1 -3.5Z" stroke="#000629" fill="none" stroke-width="1"></path></g><g transform="translate(693 412)"><path d="M0 -6L5.2 -3L5.2 3L0 6L-5.2 3L-5.2 -3Z" stroke="#000629" fill="none" stroke-width="1"></path></g><g transform="translate(453 481)"><path d="M0 -11L9.5 -5.5L9.5 5.5L0 11L-9.5 5.5L-9.5 -5.5Z" stroke="#000629" fill="none" stroke-width="1"></path></g><g transform="translate(222 137)"><path d="M0 -11L9.5 -5.5L9.5 5.5L0 11L-9.5 5.5L-9.5 -5.5Z" stroke="#000629" fill="none" stroke-width="1"></path></g><g transform="translate(39 346)"><path d="M0 -9L7.8 -4.5L7.8 4.5L0 9L-7.8 4.5L-7.8 -4.5Z" stroke="#000629" fill="none" stroke-width="1"></path></g><g transform="translate(815 131)"><path d="M0 -7L6.1 -3.5L6.1 3.5L0 7L-6.1 3.5L-6.1 -3.5Z" stroke="#000629" fill="none" stroke-width="1"></path></g><g transform="translate(899 437)"><path d="M0 -10L8.7 -5L8.7 5L0 10L-8.7 5L-8.7 -5Z" stroke="#000629" fill="none" stroke-width="1"></path></g><g transform="translate(838 251)"><path d="M0 -11L9.5 -5.5L9.5 5.5L0 11L-9.5 5.5L-9.5 -5.5Z" stroke="#000629" fill="none" stroke-width="1"></path></g><g transform="translate(692 80)"><path d="M0 -10L8.7 -5L8.7 5L0 10L-8.7 5L-8.7 -5Z" stroke="#000629" fill="none" stroke-width="1"></path></g><g transform="translate(8 481)"><path d="M0 -9L7.8 -4.5L7.8 4.5L0 9L-7.8 4.5L-7.8 -4.5Z" stroke="#000629" fill="none" stroke-width="1"></path></g><g transform="translate(269 446)"><path d="M0 -8L6.9 -4L6.9 4L0 8L-6.9 4L-6.9 -4Z" stroke="#000629" fill="none" stroke-width="1"></path></g><g transform="translate(629 157)"><path d="M0 -8L6.9 -4L6.9 4L0 8L-6.9 4L-6.9 -4Z" stroke="#000629" fill="none" stroke-width="1"></path></g><g transform="translate(67 123)"><path d="M0 -9L7.8 -4.5L7.8 4.5L0 9L-7.8 4.5L-7.8 -4.5Z" stroke="#000629" fill="none" stroke-width="1"></path></g><g transform="translate(897 586)"><path d="M0 -9L7.8 -4.5L7.8 4.5L0 9L-7.8 4.5L-7.8 -4.5Z" stroke="#000629" fill="none" stroke-width="1"></path></g><g transform="translate(394 327)"><path d="M0 -11L9.5 -5.5L9.5 5.5L0 11L-9.5 5.5L-9.5 -5.5Z" stroke="#000629" fill="none" stroke-width="1"></path></g><g transform="translate(234 353)"><path d="M0 -8L6.9 -4L6.9 4L0 8L-6.9 4L-6.9 -4Z" stroke="#000629" fill="none" stroke-width="1"></path></g><g transform="translate(677 359)"><path d="M0 -8L6.9 -4L6.9 4L0 8L-6.9 4L-6.9 -4Z" stroke="#000629" fill="none" stroke-width="1"></path></g><g transform="translate(490 209)"><path d="M0 -10L8.7 -5L8.7 5L0 10L-8.7 5L-8.7 -5Z" stroke="#000629" fill="none" stroke-width="1"></path></g><g transform="translate(83 500)"><path d="M0 -8L6.9 -4L6.9 4L0 8L-6.9 4L-6.9 -4Z" stroke="#000629" fill="none" stroke-width="1"></path></g><g transform="translate(756 478)"><path d="M0 -11L9.5 -5.5L9.5 5.5L0 11L-9.5 5.5L-9.5 -5.5Z" stroke="#000629" fill="none" stroke-width="1"></path></g><g transform="translate(110 360)"><path d="M0 -8L6.9 -4L6.9 4L0 8L-6.9 4L-6.9 -4Z" stroke="#000629" fill="none" stroke-width="1"></path></g><g transform="translate(337 474)"><path d="M0 -9L7.8 -4.5L7.8 4.5L0 9L-7.8 4.5L-7.8 -4.5Z" stroke="#000629" fill="none" stroke-width="1"></path></g><g transform="translate(499 422)"><path d="M0 -8L6.9 -4L6.9 4L0 8L-6.9 4L-6.9 -4Z" stroke="#000629" fill="none" stroke-width="1"></path></g><g transform="translate(102 9)"><path d="M0 -9L7.8 -4.5L7.8 4.5L0 9L-7.8 4.5L-7.8 -4.5Z" stroke="#000629" fill="none" stroke-width="1"></path></g><g transform="translate(14 357)"><path d="M0 -8L6.9 -4L6.9 4L0 8L-6.9 4L-6.9 -4Z" stroke="#000629" fill="none" stroke-width="1"></path></g><g transform="translate(659 383)"><path d="M0 -12L10.4 -6L10.4 6L0 12L-10.4 6L-10.4 -6Z" stroke="#000629" fill="none" stroke-width="1"></path></g><g transform="translate(524 166)"><path d="M0 -12L10.4 -6L10.4 6L0 12L-10.4 6L-10.4 -6Z" stroke="#000629" fill="none" stroke-width="1"></path></g><g transform="translate(673 465)"><path d="M0 -6L5.2 -3L5.2 3L0 6L-5.2 3L-5.2 -3Z" stroke="#000629" fill="none" stroke-width="1"></path></g><g transform="translate(324 144)"><path d="M0 -8L6.9 -4L6.9 4L0 8L-6.9 4L-6.9 -4Z" stroke="#000629" fill="none" stroke-width="1"></path></g><g transform="translate(743 78)"><path d="M0 -10L8.7 -5L8.7 5L0 10L-8.7 5L-8.7 -5Z" stroke="#000629" fill="none" stroke-width="1"></path></g><g transform="translate(330 35)"><path d="M0 -10L8.7 -5L8.7 5L0 10L-8.7 5L-8.7 -5Z" stroke="#000629" fill="none" stroke-width="1"></path></g><g transform="translate(887 488)"><path d="M0 -10L8.7 -5L8.7 5L0 10L-8.7 5L-8.7 -5Z" stroke="#000629" fill="none" stroke-width="1"></path></g><g transform="translate(225 468)"><path d="M0 -9L7.8 -4.5L7.8 4.5L0 9L-7.8 4.5L-7.8 -4.5Z" stroke="#000629" fill="none" stroke-width="1"></path></g><g transform="translate(51 47)"><path d="M0 -12L10.4 -6L10.4 6L0 12L-10.4 6L-10.4 -6Z" stroke="#000629" fill="none" stroke-width="1"></path></g><g transform="translate(321 87)"><path d="M0 -11L9.5 -5.5L9.5 5.5L0 11L-9.5 5.5L-9.5 -5.5Z" stroke="#000629" fill="none" stroke-width="1"></path></g><g transform="translate(782 115)"><path d="M0 -12L10.4 -6L10.4 6L0 12L-10.4 6L-10.4 -6Z" stroke="#000629" fill="none" stroke-width="1"></path></g><g transform="translate(430 369)"><path d="M0 -7L6.1 -3.5L6.1 3.5L0 7L-6.1 3.5L-6.1 -3.5Z" stroke="#000629" fill="none" stroke-width="1"></path></g><g transform="translate(177 260)"><path d="M0 -8L6.9 -4L6.9 4L0 8L-6.9 4L-6.9 -4Z" stroke="#000629" fill="none" stroke-width="1"></path></g><g transform="translate(704 596)"><path d="M0 -12L10.4 -6L10.4 6L0 12L-10.4 6L-10.4 -6Z" stroke="#000629" fill="none" stroke-width="1"></path></g><g transform="translate(789 142)"><path d="M0 -12L10.4 -6L10.4 6L0 12L-10.4 6L-10.4 -6Z" stroke="#000629" fill="none" stroke-width="1"></path></g><g transform="translate(144 373)"><path d="M0 -9L7.8 -4.5L7.8 4.5L0 9L-7.8 4.5L-7.8 -4.5Z" stroke="#000629" fill="none" stroke-width="1"></path></g><g transform="translate(407 276)"><path d="M0 -6L5.2 -3L5.2 3L0 6L-5.2 3L-5.2 -3Z" stroke="#000629" fill="none" stroke-width="1"></path></g><g transform="translate(853 556)"><path d="M0 -6L5.2 -3L5.2 3L0 6L-5.2 3L-5.2 -3Z" stroke="#000629" fill="none" stroke-width="1"></path></g><g transform="translate(431 23)"><path d="M0 -7L6.1 -3.5L6.1 3.5L0 7L-6.1 3.5L-6.1 -3.5Z" stroke="#000629" fill="none" stroke-width="1"></path></g><g transform="translate(172 22)"><path d="M0 -7L6.1 -3.5L6.1 3.5L0 7L-6.1 3.5L-6.1 -3.5Z" stroke="#000629" fill="none" stroke-width="1"></path></g><g transform="translate(545 566)"><path d="M0 -12L10.4 -6L10.4 6L0 12L-10.4 6L-10.4 -6Z" stroke="#000629" fill="none" stroke-width="1"></path></g><g transform="translate(471 344)"><path d="M0 -8L6.9 -4L6.9 4L0 8L-6.9 4L-6.9 -4Z" stroke="#000629" fill="none" stroke-width="1"></path></g><g transform="translate(327 431)"><path d="M0 -8L6.9 -4L6.9 4L0 8L-6.9 4L-6.9 -4Z" stroke="#000629" fill="none" stroke-width="1"></path></g><g transform="translate(350 540)"><path d="M0 -9L7.8 -4.5L7.8 4.5L0 9L-7.8 4.5L-7.8 -4.5Z" stroke="#000629" fill="none" stroke-width="1"></path></g><g transform="translate(248 190)"><path d="M0 -9L7.8 -4.5L7.8 4.5L0 9L-7.8 4.5L-7.8 -4.5Z" stroke="#000629" fill="none" stroke-width="1"></path></g><g transform="translate(220 518)"><path d="M0 -8L6.9 -4L6.9 4L0 8L-6.9 4L-6.9 -4Z" stroke="#000629" fill="none" stroke-width="1"></path></g><g transform="translate(89 574)"><path d="M0 -11L9.5 -5.5L9.5 5.5L0 11L-9.5 5.5L-9.5 -5.5Z" stroke="#000629" fill="none" stroke-width="1"></path></g><g transform="translate(189 472)"><path d="M0 -10L8.7 -5L8.7 5L0 10L-8.7 5L-8.7 -5Z" stroke="#000629" fill="none" stroke-width="1"></path></g><g transform="translate(90 544)"><path d="M0 -11L9.5 -5.5L9.5 5.5L0 11L-9.5 5.5L-9.5 -5.5Z" stroke="#000629" fill="none" stroke-width="1"></path></g><g transform="translate(678 256)"><path d="M0 -10L8.7 -5L8.7 5L0 10L-8.7 5L-8.7 -5Z" stroke="#000629" fill="none" stroke-width="1"></path></g><g transform="translate(870 228)"><path d="M0 -9L7.8 -4.5L7.8 4.5L0 9L-7.8 4.5L-7.8 -4.5Z" stroke="#000629" fill="none" stroke-width="1"></path></g><g transform="translate(637 118)"><path d="M0 -7L6.1 -3.5L6.1 3.5L0 7L-6.1 3.5L-6.1 -3.5Z" stroke="#000629" fill="none" stroke-width="1"></path></g><g transform="translate(706 7)"><path d="M0 -6L5.2 -3L5.2 3L0 6L-5.2 3L-5.2 -3Z" stroke="#000629" fill="none" stroke-width="1"></path></g><g transform="translate(65 342)"><path d="M0 -10L8.7 -5L8.7 5L0 10L-8.7 5L-8.7 -5Z" stroke="#000629" fill="none" stroke-width="1"></path></g><g transform="translate(392 514)"><path d="M0 -9L7.8 -4.5L7.8 4.5L0 9L-7.8 4.5L-7.8 -4.5Z" stroke="#000629" fill="none" stroke-width="1"></path></g><g transform="translate(892 296)"><path d="M0 -11L9.5 -5.5L9.5 5.5L0 11L-9.5 5.5L-9.5 -5.5Z" stroke="#000629" fill="none" stroke-width="1"></path></g><g transform="translate(803 168)"><path d="M0 -8L6.9 -4L6.9 4L0 8L-6.9 4L-6.9 -4Z" stroke="#000629" fill="none" stroke-width="1"></path></g><g transform="translate(79 234)"><path d="M0 -7L6.1 -3.5L6.1 3.5L0 7L-6.1 3.5L-6.1 -3.5Z" stroke="#000629" fill="none" stroke-width="1"></path></g><g transform="translate(193 3)"><path d="M0 -9L7.8 -4.5L7.8 4.5L0 9L-7.8 4.5L-7.8 -4.5Z" stroke="#000629" fill="none" stroke-width="1"></path></g><g transform="translate(94 424)"><path d="M0 -11L9.5 -5.5L9.5 5.5L0 11L-9.5 5.5L-9.5 -5.5Z" stroke="#000629" fill="none" stroke-width="1"></path></g><g transform="translate(233 109)"><path d="M0 -10L8.7 -5L8.7 5L0 10L-8.7 5L-8.7 -5Z" stroke="#000629" fill="none" stroke-width="1"></path></g><g transform="translate(22 582)"><path d="M0 -9L7.8 -4.5L7.8 4.5L0 9L-7.8 4.5L-7.8 -4.5Z" stroke="#000629" fill="none" stroke-width="1"></path></g><g transform="translate(150 47)"><path d="M0 -8L6.9 -4L6.9 4L0 8L-6.9 4L-6.9 -4Z" stroke="#000629" fill="none" stroke-width="1"></path></g><g transform="translate(324 398)"><path d="M0 -7L6.1 -3.5L6.1 3.5L0 7L-6.1 3.5L-6.1 -3.5Z" stroke="#000629" fill="none" stroke-width="1"></path></g><g transform="translate(592 63)"><path d="M0 -9L7.8 -4.5L7.8 4.5L0 9L-7.8 4.5L-7.8 -4.5Z" stroke="#000629" fill="none" stroke-width="1"></path></g><g transform="translate(559 2)"><path d="M0 -11L9.5 -5.5L9.5 5.5L0 11L-9.5 5.5L-9.5 -5.5Z" stroke="#000629" fill="none" stroke-width="1"></path></g><g transform="translate(544 125)"><path d="M0 -9L7.8 -4.5L7.8 4.5L0 9L-7.8 4.5L-7.8 -4.5Z" stroke="#000629" fill="none" stroke-width="1"></path></g><g transform="translate(346 590)"><path d="M0 -8L6.9 -4L6.9 4L0 8L-6.9 4L-6.9 -4Z" stroke="#000629" fill="none" stroke-width="1"></path></g><g transform="translate(55 169)"><path d="M0 -10L8.7 -5L8.7 5L0 10L-8.7 5L-8.7 -5Z" stroke="#000629" fill="none" stroke-width="1"></path></g><g transform="translate(266 231)"><path d="M0 -11L9.5 -5.5L9.5 5.5L0 11L-9.5 5.5L-9.5 -5.5Z" stroke="#000629" fill="none" stroke-width="1"></path></g><g transform="translate(563 485)"><path d="M0 -8L6.9 -4L6.9 4L0 8L-6.9 4L-6.9 -4Z" stroke="#000629" fill="none" stroke-width="1"></path></g><g transform="translate(756 149)"><path d="M0 -8L6.9 -4L6.9 4L0 8L-6.9 4L-6.9 -4Z" stroke="#000629" fill="none" stroke-width="1"></path></g><g transform="translate(212 219)"><path d="M0 -7L6.1 -3.5L6.1 3.5L0 7L-6.1 3.5L-6.1 -3.5Z" stroke="#000629" fill="none" stroke-width="1"></path></g><g transform="translate(832 455)"><path d="M0 -12L10.4 -6L10.4 6L0 12L-10.4 6L-10.4 -6Z" stroke="#000629" fill="none" stroke-width="1"></path></g><g transform="translate(369 400)"><path d="M0 -9L7.8 -4.5L7.8 4.5L0 9L-7.8 4.5L-7.8 -4.5Z" stroke="#000629" fill="none" stroke-width="1"></path></g><g transform="translate(847 133)"><path d="M0 -7L6.1 -3.5L6.1 3.5L0 7L-6.1 3.5L-6.1 -3.5Z" stroke="#000629" fill="none" stroke-width="1"></path></g><g transform="translate(506 279)"><path d="M0 -9L7.8 -4.5L7.8 4.5L0 9L-7.8 4.5L-7.8 -4.5Z" stroke="#000629" fill="none" stroke-width="1"></path></g><g transform="translate(180 196)"><path d="M0 -7L6.1 -3.5L6.1 3.5L0 7L-6.1 3.5L-6.1 -3.5Z" stroke="#000629" fill="none" stroke-width="1"></path></g><g transform="translate(646 311)"><path d="M0 -7L6.1 -3.5L6.1 3.5L0 7L-6.1 3.5L-6.1 -3.5Z" stroke="#000629" fill="none" stroke-width="1"></path></g><g transform="translate(262 407)"><path d="M0 -11L9.5 -5.5L9.5 5.5L0 11L-9.5 5.5L-9.5 -5.5Z" stroke="#000629" fill="none" stroke-width="1"></path></g><g transform="translate(206 38)"><path d="M0 -8L6.9 -4L6.9 4L0 8L-6.9 4L-6.9 -4Z" stroke="#000629" fill="none" stroke-width="1"></path></g><g transform="translate(11 10)"><path d="M0 -11L9.5 -5.5L9.5 5.5L0 11L-9.5 5.5L-9.5 -5.5Z" stroke="#000629" fill="none" stroke-width="1"></path></g><g transform="translate(616 479)"><path d="M0 -11L9.5 -5.5L9.5 5.5L0 11L-9.5 5.5L-9.5 -5.5Z" stroke="#000629" fill="none" stroke-width="1"></path></g><g transform="translate(742 122)"><path d="M0 -6L5.2 -3L5.2 3L0 6L-5.2 3L-5.2 -3Z" stroke="#000629" fill="none" stroke-width="1"></path></g><g transform="translate(384 109)"><path d="M0 -12L10.4 -6L10.4 6L0 12L-10.4 6L-10.4 -6Z" stroke="#000629" fill="none" stroke-width="1"></path></g><g transform="translate(251 559)"><path d="M0 -11L9.5 -5.5L9.5 5.5L0 11L-9.5 5.5L-9.5 -5.5Z" stroke="#000629" fill="none" stroke-width="1"></path></g><g transform="translate(696 450)"><path d="M0 -10L8.7 -5L8.7 5L0 10L-8.7 5L-8.7 -5Z" stroke="#000629" fill="none" stroke-width="1"></path></g><g transform="translate(452 291)"><path d="M0 -8L6.9 -4L6.9 4L0 8L-6.9 4L-6.9 -4Z" stroke="#000629" fill="none" stroke-width="1"></path></g><g transform="translate(518 14)"><path d="M0 -10L8.7 -5L8.7 5L0 10L-8.7 5L-8.7 -5Z" stroke="#000629" fill="none" stroke-width="1"></path></g><g transform="translate(694 176)"><path d="M0 -8L6.9 -4L6.9 4L0 8L-6.9 4L-6.9 -4Z" stroke="#000629" fill="none" stroke-width="1"></path></g><g transform="translate(113 183)"><path d="M0 -10L8.7 -5L8.7 5L0 10L-8.7 5L-8.7 -5Z" stroke="#000629" fill="none" stroke-width="1"></path></g><g transform="translate(719 209)"><path d="M0 -9L7.8 -4.5L7.8 4.5L0 9L-7.8 4.5L-7.8 -4.5Z" stroke="#000629" fill="none" stroke-width="1"></path></g><g transform="translate(377 7)"><path d="M0 -9L7.8 -4.5L7.8 4.5L0 9L-7.8 4.5L-7.8 -4.5Z" stroke="#000629" fill="none" stroke-width="1"></path></g><g transform="translate(521 197)"><path d="M0 -11L9.5 -5.5L9.5 5.5L0 11L-9.5 5.5L-9.5 -5.5Z" stroke="#000629" fill="none" stroke-width="1"></path></g><g transform="translate(137 294)"><path d="M0 -10L8.7 -5L8.7 5L0 10L-8.7 5L-8.7 -5Z" stroke="#000629" fill="none" stroke-width="1"></path></g><g transform="translate(59 479)"><path d="M0 -12L10.4 -6L10.4 6L0 12L-10.4 6L-10.4 -6Z" stroke="#000629" fill="none" stroke-width="1"></path></g><g transform="translate(263 587)"><path d="M0 -11L9.5 -5.5L9.5 5.5L0 11L-9.5 5.5L-9.5 -5.5Z" stroke="#000629" fill="none" stroke-width="1"></path></g><g transform="translate(151 553)"><path d="M0 -9L7.8 -4.5L7.8 4.5L0 9L-7.8 4.5L-7.8 -4.5Z" stroke="#000629" fill="none" stroke-width="1"></path></g><g transform="translate(559 386)"><path d="M0 -10L8.7 -5L8.7 5L0 10L-8.7 5L-8.7 -5Z" stroke="#000629" fill="none" stroke-width="1"></path></g><g transform="translate(898 14)"><path d="M0 -10L8.7 -5L8.7 5L0 10L-8.7 5L-8.7 -5Z" stroke="#000629" fill="none" stroke-width="1"></path></g><g transform="translate(869 367)"><path d="M0 -9L7.8 -4.5L7.8 4.5L0 9L-7.8 4.5L-7.8 -4.5Z" stroke="#000629" fill="none" stroke-width="1"></path></g><g transform="translate(180 498)"><path d="M0 -11L9.5 -5.5L9.5 5.5L0 11L-9.5 5.5L-9.5 -5.5Z" stroke="#000629" fill="none" stroke-width="1"></path></g><g transform="translate(630 39)"><path d="M0 -7L6.1 -3.5L6.1 3.5L0 7L-6.1 3.5L-6.1 -3.5Z" stroke="#000629" fill="none" stroke-width="1"></path></g><g transform="translate(169 227)"><path d="M0 -7L6.1 -3.5L6.1 3.5L0 7L-6.1 3.5L-6.1 -3.5Z" stroke="#000629" fill="none" stroke-width="1"></path></g><g transform="translate(74 1)"><path d="M0 -6L5.2 -3L5.2 3L0 6L-5.2 3L-5.2 -3Z" stroke="#000629" fill="none" stroke-width="1"></path></g><g transform="translate(77 52)"><path d="M0 -10L8.7 -5L8.7 5L0 10L-8.7 5L-8.7 -5Z" stroke="#000629" fill="none" stroke-width="1"></path></g><g transform="translate(407 461)"><path d="M0 -9L7.8 -4.5L7.8 4.5L0 9L-7.8 4.5L-7.8 -4.5Z" stroke="#000629" fill="none" stroke-width="1"></path></g><g transform="translate(811 596)"><path d="M0 -10L8.7 -5L8.7 5L0 10L-8.7 5L-8.7 -5Z" stroke="#000629" fill="none" stroke-width="1"></path></g><g transform="translate(802 434)"><path d="M0 -8L6.9 -4L6.9 4L0 8L-6.9 4L-6.9 -4Z" stroke="#000629" fill="none" stroke-width="1"></path></g><g transform="translate(772 171)"><path d="M0 -6L5.2 -3L5.2 3L0 6L-5.2 3L-5.2 -3Z" stroke="#000629" fill="none" stroke-width="1"></path></g><g transform="translate(152 523)"><path d="M0 -6L5.2 -3L5.2 3L0 6L-5.2 3L-5.2 -3Z" stroke="#000629" fill="none" stroke-width="1"></path></g><g transform="translate(846 184)"><path d="M0 -8L6.9 -4L6.9 4L0 8L-6.9 4L-6.9 -4Z" stroke="#000629" fill="none" stroke-width="1"></path></g><g transform="translate(8 270)"><path d="M0 -11L9.5 -5.5L9.5 5.5L0 11L-9.5 5.5L-9.5 -5.5Z" stroke="#000629" fill="none" stroke-width="1"></path></g><g transform="translate(609 104)"><path d="M0 -7L6.1 -3.5L6.1 3.5L0 7L-6.1 3.5L-6.1 -3.5Z" stroke="#000629" fill="none" stroke-width="1"></path></g><g transform="translate(48 453)"><path d="M0 -8L6.9 -4L6.9 4L0 8L-6.9 4L-6.9 -4Z" stroke="#000629" fill="none" stroke-width="1"></path></g><g transform="translate(450 205)"><path d="M0 -12L10.4 -6L10.4 6L0 12L-10.4 6L-10.4 -6Z" stroke="#000629" fill="none" stroke-width="1"></path></g><g transform="translate(556 311)"><path d="M0 -12L10.4 -6L10.4 6L0 12L-10.4 6L-10.4 -6Z" stroke="#000629" fill="none" stroke-width="1"></path></g><g transform="translate(296 428)"><path d="M0 -9L7.8 -4.5L7.8 4.5L0 9L-7.8 4.5L-7.8 -4.5Z" stroke="#000629" fill="none" stroke-width="1"></path></g><g transform="translate(131 104)"><path d="M0 -12L10.4 -6L10.4 6L0 12L-10.4 6L-10.4 -6Z" stroke="#000629" fill="none" stroke-width="1"></path></g><g transform="translate(100 284)"><path d="M0 -11L9.5 -5.5L9.5 5.5L0 11L-9.5 5.5L-9.5 -5.5Z" stroke="#000629" fill="none" stroke-width="1"></path></g><g transform="translate(309 12)"><path d="M0 -9L7.8 -4.5L7.8 4.5L0 9L-7.8 4.5L-7.8 -4.5Z" stroke="#000629" fill="none" stroke-width="1"></path></g><g transform="translate(50 15)"><path d="M0 -11L9.5 -5.5L9.5 5.5L0 11L-9.5 5.5L-9.5 -5.5Z" stroke="#000629" fill="none" stroke-width="1"></path></g><g transform="translate(497 465)"><path d="M0 -9L7.8 -4.5L7.8 4.5L0 9L-7.8 4.5L-7.8 -4.5Z" stroke="#000629" fill="none" stroke-width="1"></path></g><g transform="translate(789 581)"><path d="M0 -8L6.9 -4L6.9 4L0 8L-6.9 4L-6.9 -4Z" stroke="#000629" fill="none" stroke-width="1"></path></g><g transform="translate(558 340)"><path d="M0 -6L5.2 -3L5.2 3L0 6L-5.2 3L-5.2 -3Z" stroke="#000629" fill="none" stroke-width="1"></path></g><g transform="translate(127 156)"><path d="M0 -10L8.7 -5L8.7 5L0 10L-8.7 5L-8.7 -5Z" stroke="#000629" fill="none" stroke-width="1"></path></g><g transform="translate(709 339)"><path d="M0 -7L6.1 -3.5L6.1 3.5L0 7L-6.1 3.5L-6.1 -3.5Z" stroke="#000629" fill="none" stroke-width="1"></path></g><g transform="translate(484 574)"><path d="M0 -6L5.2 -3L5.2 3L0 6L-5.2 3L-5.2 -3Z" stroke="#000629" fill="none" stroke-width="1"></path></g><g transform="translate(729 181)"><path d="M0 -11L9.5 -5.5L9.5 5.5L0 11L-9.5 5.5L-9.5 -5.5Z" stroke="#000629" fill="none" stroke-width="1"></path></g><g transform="translate(421 140)"><path d="M0 -9L7.8 -4.5L7.8 4.5L0 9L-7.8 4.5L-7.8 -4.5Z" stroke="#000629" fill="none" stroke-width="1"></path></g><g transform="translate(450 244)"><path d="M0 -10L8.7 -5L8.7 5L0 10L-8.7 5L-8.7 -5Z" stroke="#000629" fill="none" stroke-width="1"></path></g><g transform="translate(249 515)"><path d="M0 -11L9.5 -5.5L9.5 5.5L0 11L-9.5 5.5L-9.5 -5.5Z" stroke="#000629" fill="none" stroke-width="1"></path></g><g transform="translate(126 421)"><path d="M0 -9L7.8 -4.5L7.8 4.5L0 9L-7.8 4.5L-7.8 -4.5Z" stroke="#000629" fill="none" stroke-width="1"></path></g><g transform="translate(657 238)"><path d="M0 -7L6.1 -3.5L6.1 3.5L0 7L-6.1 3.5L-6.1 -3.5Z" stroke="#000629" fill="none" stroke-width="1"></path></g><g transform="translate(792 49)"><path d="M0 -6L5.2 -3L5.2 3L0 6L-5.2 3L-5.2 -3Z" stroke="#000629" fill="none" stroke-width="1"></path></g><g transform="translate(437 171)"><path d="M0 -8L6.9 -4L6.9 4L0 8L-6.9 4L-6.9 -4Z" stroke="#000629" fill="none" stroke-width="1"></path></g><g transform="translate(826 570)"><path d="M0 -11L9.5 -5.5L9.5 5.5L0 11L-9.5 5.5L-9.5 -5.5Z" stroke="#000629" fill="none" stroke-width="1"></path></g><g transform="translate(266 375)"><path d="M0 -9L7.8 -4.5L7.8 4.5L0 9L-7.8 4.5L-7.8 -4.5Z" stroke="#000629" fill="none" stroke-width="1"></path></g><g transform="translate(289 200)"><path d="M0 -7L6.1 -3.5L6.1 3.5L0 7L-6.1 3.5L-6.1 -3.5Z" stroke="#000629" fill="none" stroke-width="1"></path></g><g transform="translate(681 288)"><path d="M0 -8L6.9 -4L6.9 4L0 8L-6.9 4L-6.9 -4Z" stroke="#000629" fill="none" stroke-width="1"></path></g><g transform="translate(789 554)"><path d="M0 -10L8.7 -5L8.7 5L0 10L-8.7 5L-8.7 -5Z" stroke="#000629" fill="none" stroke-width="1"></path></g><g transform="translate(561 524)"><path d="M0 -12L10.4 -6L10.4 6L0 12L-10.4 6L-10.4 -6Z" stroke="#000629" fill="none" stroke-width="1"></path></g><g transform="translate(776 7)"><path d="M0 -11L9.5 -5.5L9.5 5.5L0 11L-9.5 5.5L-9.5 -5.5Z" stroke="#000629" fill="none" stroke-width="1"></path></g><g transform="translate(659 28)"><path d="M0 -6L5.2 -3L5.2 3L0 6L-5.2 3L-5.2 -3Z" stroke="#000629" fill="none" stroke-width="1"></path></g><g transform="translate(200 595)"><path d="M0 -8L6.9 -4L6.9 4L0 8L-6.9 4L-6.9 -4Z" stroke="#000629" fill="none" stroke-width="1"></path></g><g transform="translate(176 290)"><path d="M0 -6L5.2 -3L5.2 3L0 6L-5.2 3L-5.2 -3Z" stroke="#000629" fill="none" stroke-width="1"></path></g><g transform="translate(616 570)"><path d="M0 -9L7.8 -4.5L7.8 4.5L0 9L-7.8 4.5L-7.8 -4.5Z" stroke="#000629" fill="none" stroke-width="1"></path></g><g transform="translate(50 574)"><path d="M0 -12L10.4 -6L10.4 6L0 12L-10.4 6L-10.4 -6Z" stroke="#000629" fill="none" stroke-width="1"></path></g><g transform="translate(622 187)"><path d="M0 -10L8.7 -5L8.7 5L0 10L-8.7 5L-8.7 -5Z" stroke="#000629" fill="none" stroke-width="1"></path></g><g transform="translate(281 255)"><path d="M0 -11L9.5 -5.5L9.5 5.5L0 11L-9.5 5.5L-9.5 -5.5Z" stroke="#000629" fill="none" stroke-width="1"></path></g><g transform="translate(513 236)"><path d="M0 -6L5.2 -3L5.2 3L0 6L-5.2 3L-5.2 -3Z" stroke="#000629" fill="none" stroke-width="1"></path></g><g transform="translate(866 328)"><path d="M0 -12L10.4 -6L10.4 6L0 12L-10.4 6L-10.4 -6Z" stroke="#000629" fill="none" stroke-width="1"></path></g><g transform="translate(22 97)"><path d="M0 -7L6.1 -3.5L6.1 3.5L0 7L-6.1 3.5L-6.1 -3.5Z" stroke="#000629" fill="none" stroke-width="1"></path></g><g transform="translate(819 190)"><path d="M0 -7L6.1 -3.5L6.1 3.5L0 7L-6.1 3.5L-6.1 -3.5Z" stroke="#000629" fill="none" stroke-width="1"></path></g><g transform="translate(551 213)"><path d="M0 -11L9.5 -5.5L9.5 5.5L0 11L-9.5 5.5L-9.5 -5.5Z" stroke="#000629" fill="none" stroke-width="1"></path></g><g transform="translate(418 305)"><path d="M0 -10L8.7 -5L8.7 5L0 10L-8.7 5L-8.7 -5Z" stroke="#000629" fill="none" stroke-width="1"></path></g><g transform="translate(852 484)"><path d="M0 -12L10.4 -6L10.4 6L0 12L-10.4 6L-10.4 -6Z" stroke="#000629" fill="none" stroke-width="1"></path></g><g transform="translate(187 539)"><path d="M0 -12L10.4 -6L10.4 6L0 12L-10.4 6L-10.4 -6Z" stroke="#000629" fill="none" stroke-width="1"></path></g><g transform="translate(352 251)"><path d="M0 -12L10.4 -6L10.4 6L0 12L-10.4 6L-10.4 -6Z" stroke="#000629" fill="none" stroke-width="1"></path></g><g transform="translate(618 434)"><path d="M0 -8L6.9 -4L6.9 4L0 8L-6.9 4L-6.9 -4Z" stroke="#000629" fill="none" stroke-width="1"></path></g><g transform="translate(839 519)"><path d="M0 -9L7.8 -4.5L7.8 4.5L0 9L-7.8 4.5L-7.8 -4.5Z" stroke="#000629" fill="none" stroke-width="1"></path></g><g transform="translate(529 62)"><path d="M0 -12L10.4 -6L10.4 6L0 12L-10.4 6L-10.4 -6Z" stroke="#000629" fill="none" stroke-width="1"></path></g><g transform="translate(834 158)"><path d="M0 -6L5.2 -3L5.2 3L0 6L-5.2 3L-5.2 -3Z" stroke="#000629" fill="none" stroke-width="1"></path></g><g transform="translate(501 155)"><path d="M0 -8L6.9 -4L6.9 4L0 8L-6.9 4L-6.9 -4Z" stroke="#000629" fill="none" stroke-width="1"></path></g><g transform="translate(12 508)"><path d="M0 -8L6.9 -4L6.9 4L0 8L-6.9 4L-6.9 -4Z" stroke="#000629" fill="none" stroke-width="1"></path></g><g transform="translate(570 242)"><path d="M0 -10L8.7 -5L8.7 5L0 10L-8.7 5L-8.7 -5Z" stroke="#000629" fill="none" stroke-width="1"></path></g><g transform="translate(88 388)"><path d="M0 -10L8.7 -5L8.7 5L0 10L-8.7 5L-8.7 -5Z" stroke="#000629" fill="none" stroke-width="1"></path></g><g transform="translate(699 518)"><path d="M0 -6L5.2 -3L5.2 3L0 6L-5.2 3L-5.2 -3Z" stroke="#000629" fill="none" stroke-width="1"></path></g><g transform="translate(43 378)"><path d="M0 -11L9.5 -5.5L9.5 5.5L0 11L-9.5 5.5L-9.5 -5.5Z" stroke="#000629" fill="none" stroke-width="1"></path></g><g transform="translate(752 307)"><path d="M0 -10L8.7 -5L8.7 5L0 10L-8.7 5L-8.7 -5Z" stroke="#000629" fill="none" stroke-width="1"></path></g><g transform="translate(768 380)"><path d="M0 -7L6.1 -3.5L6.1 3.5L0 7L-6.1 3.5L-6.1 -3.5Z" stroke="#000629" fill="none" stroke-width="1"></path></g><g transform="translate(533 353)"><path d="M0 -7L6.1 -3.5L6.1 3.5L0 7L-6.1 3.5L-6.1 -3.5Z" stroke="#000629" fill="none" stroke-width="1"></path></g><g transform="translate(738 228)"><path d="M0 -6L5.2 -3L5.2 3L0 6L-5.2 3L-5.2 -3Z" stroke="#000629" fill="none" stroke-width="1"></path></g><g transform="translate(788 476)"><path d="M0 -11L9.5 -5.5L9.5 5.5L0 11L-9.5 5.5L-9.5 -5.5Z" stroke="#000629" fill="none" stroke-width="1"></path></g><g transform="translate(292 522)"><path d="M0 -9L7.8 -4.5L7.8 4.5L0 9L-7.8 4.5L-7.8 -4.5Z" stroke="#000629" fill="none" stroke-width="1"></path></g><g transform="translate(330 228)"><path d="M0 -7L6.1 -3.5L6.1 3.5L0 7L-6.1 3.5L-6.1 -3.5Z" stroke="#000629" fill="none" stroke-width="1"></path></g><g transform="translate(606 8)"><path d="M0 -11L9.5 -5.5L9.5 5.5L0 11L-9.5 5.5L-9.5 -5.5Z" stroke="#000629" fill="none" stroke-width="1"></path></g><g transform="translate(160 342)"><path d="M0 -10L8.7 -5L8.7 5L0 10L-8.7 5L-8.7 -5Z" stroke="#000629" fill="none" stroke-width="1"></path></g><g transform="translate(284 135)"><path d="M0 -9L7.8 -4.5L7.8 4.5L0 9L-7.8 4.5L-7.8 -4.5Z" stroke="#000629" fill="none" stroke-width="1"></path></g><g transform="translate(723 481)"><path d="M0 -9L7.8 -4.5L7.8 4.5L0 9L-7.8 4.5L-7.8 -4.5Z" stroke="#000629" fill="none" stroke-width="1"></path></g><g transform="translate(304 241)"><path d="M0 -10L8.7 -5L8.7 5L0 10L-8.7 5L-8.7 -5Z" stroke="#000629" fill="none" stroke-width="1"></path></g><g transform="translate(809 529)"><path d="M0 -7L6.1 -3.5L6.1 3.5L0 7L-6.1 3.5L-6.1 -3.5Z" stroke="#000629" fill="none" stroke-width="1"></path></g><g transform="translate(454 111)"><path d="M0 -12L10.4 -6L10.4 6L0 12L-10.4 6L-10.4 -6Z" stroke="#000629" fill="none" stroke-width="1"></path></g><g transform="translate(501 310)"><path d="M0 -10L8.7 -5L8.7 5L0 10L-8.7 5L-8.7 -5Z" stroke="#000629" fill="none" stroke-width="1"></path></g><g transform="translate(820 277)"><path d="M0 -6L5.2 -3L5.2 3L0 6L-5.2 3L-5.2 -3Z" stroke="#000629" fill="none" stroke-width="1"></path></g><g transform="translate(734 591)"><path d="M0 -6L5.2 -3L5.2 3L0 6L-5.2 3L-5.2 -3Z" stroke="#000629" fill="none" stroke-width="1"></path></g><g transform="translate(193 569)"><path d="M0 -8L6.9 -4L6.9 4L0 8L-6.9 4L-6.9 -4Z" stroke="#000629" fill="none" stroke-width="1"></path></g><g transform="translate(19 535)"><path d="M0 -12L10.4 -6L10.4 6L0 12L-10.4 6L-10.4 -6Z" stroke="#000629" fill="none" stroke-width="1"></path></g><g transform="translate(75 95)"><path d="M0 -10L8.7 -5L8.7 5L0 10L-8.7 5L-8.7 -5Z" stroke="#000629" fill="none" stroke-width="1"></path></g><g transform="translate(889 407)"><path d="M0 -11L9.5 -5.5L9.5 5.5L0 11L-9.5 5.5L-9.5 -5.5Z" stroke="#000629" fill="none" stroke-width="1"></path></g><g transform="translate(405 46)"><path d="M0 -11L9.5 -5.5L9.5 5.5L0 11L-9.5 5.5L-9.5 -5.5Z" stroke="#000629" fill="none" stroke-width="1"></path></g><g transform="translate(397 394)"><path d="M0 -6L5.2 -3L5.2 3L0 6L-5.2 3L-5.2 -3Z" stroke="#000629" fill="none" stroke-width="1"></path></g><g transform="translate(731 444)"><path d="M0 -6L5.2 -3L5.2 3L0 6L-5.2 3L-5.2 -3Z" stroke="#000629" fill="none" stroke-width="1"></path></g><g transform="translate(435 454)"><path d="M0 -10L8.7 -5L8.7 5L0 10L-8.7 5L-8.7 -5Z" stroke="#000629" fill="none" stroke-width="1"></path></g><g transform="translate(352 314)"><path d="M0 -10L8.7 -5L8.7 5L0 10L-8.7 5L-8.7 -5Z" stroke="#000629" fill="none" stroke-width="1"></path></g><g transform="translate(228 24)"><path d="M0 -7L6.1 -3.5L6.1 3.5L0 7L-6.1 3.5L-6.1 -3.5Z" stroke="#000629" fill="none" stroke-width="1"></path></g><g transform="translate(479 59)"><path d="M0 -11L9.5 -5.5L9.5 5.5L0 11L-9.5 5.5L-9.5 -5.5Z" stroke="#000629" fill="none" stroke-width="1"></path></g><g transform="translate(383 549)"><path d="M0 -9L7.8 -4.5L7.8 4.5L0 9L-7.8 4.5L-7.8 -4.5Z" stroke="#000629" fill="none" stroke-width="1"></path></g><g transform="translate(471 505)"><path d="M0 -8L6.9 -4L6.9 4L0 8L-6.9 4L-6.9 -4Z" stroke="#000629" fill="none" stroke-width="1"></path></g><g transform="translate(877 129)"><path d="M0 -6L5.2 -3L5.2 3L0 6L-5.2 3L-5.2 -3Z" stroke="#000629" fill="none" stroke-width="1"></path></g><g transform="translate(637 458)"><path d="M0 -11L9.5 -5.5L9.5 5.5L0 11L-9.5 5.5L-9.5 -5.5Z" stroke="#000629" fill="none" stroke-width="1"></path></g><g transform="translate(149 265)"><path d="M0 -6L5.2 -3L5.2 3L0 6L-5.2 3L-5.2 -3Z" stroke="#000629" fill="none" stroke-width="1"></path></g><g transform="translate(499 344)"><path d="M0 -8L6.9 -4L6.9 4L0 8L-6.9 4L-6.9 -4Z" stroke="#000629" fill="none" stroke-width="1"></path></g><g transform="translate(821 413)"><path d="M0 -10L8.7 -5L8.7 5L0 10L-8.7 5L-8.7 -5Z" stroke="#000629" fill="none" stroke-width="1"></path></g><g transform="translate(591 169)"><path d="M0 -11L9.5 -5.5L9.5 5.5L0 11L-9.5 5.5L-9.5 -5.5Z" stroke="#000629" fill="none" stroke-width="1"></path></g><g transform="translate(846 291)"><path d="M0 -10L8.7 -5L8.7 5L0 10L-8.7 5L-8.7 -5Z" stroke="#000629" fill="none" stroke-width="1"></path></g><g transform="translate(827 361)"><path d="M0 -10L8.7 -5L8.7 5L0 10L-8.7 5L-8.7 -5Z" stroke="#000629" fill="none" stroke-width="1"></path></g><g transform="translate(764 591)"><path d="M0 -11L9.5 -5.5L9.5 5.5L0 11L-9.5 5.5L-9.5 -5.5Z" stroke="#000629" fill="none" stroke-width="1"></path></g><g transform="translate(39 498)"><path d="M0 -10L8.7 -5L8.7 5L0 10L-8.7 5L-8.7 -5Z" stroke="#000629" fill="none" stroke-width="1"></path></g><g transform="translate(349 280)"><path d="M0 -8L6.9 -4L6.9 4L0 8L-6.9 4L-6.9 -4Z" stroke="#000629" fill="none" stroke-width="1"></path></g><g transform="translate(683 204)"><path d="M0 -6L5.2 -3L5.2 3L0 6L-5.2 3L-5.2 -3Z" stroke="#000629" fill="none" stroke-width="1"></path></g><g transform="translate(888 348)"><path d="M0 -6L5.2 -3L5.2 3L0 6L-5.2 3L-5.2 -3Z" stroke="#000629" fill="none" stroke-width="1"></path></g><g transform="translate(351 148)"><path d="M0 -10L8.7 -5L8.7 5L0 10L-8.7 5L-8.7 -5Z" stroke="#000629" fill="none" stroke-width="1"></path></g><g transform="translate(228 428)"><path d="M0 -6L5.2 -3L5.2 3L0 6L-5.2 3L-5.2 -3Z" stroke="#000629" fill="none" stroke-width="1"></path></g><g transform="translate(381 77)"><path d="M0 -8L6.9 -4L6.9 4L0 8L-6.9 4L-6.9 -4Z" stroke="#000629" fill="none" stroke-width="1"></path></g><g transform="translate(2 128)"><path d="M0 -12L10.4 -6L10.4 6L0 12L-10.4 6L-10.4 -6Z" stroke="#000629" fill="none" stroke-width="1"></path></g><g transform="translate(676 324)"><path d="M0 -11L9.5 -5.5L9.5 5.5L0 11L-9.5 5.5L-9.5 -5.5Z" stroke="#000629" fill="none" stroke-width="1"></path></g><g transform="translate(763 245)"><path d="M0 -11L9.5 -5.5L9.5 5.5L0 11L-9.5 5.5L-9.5 -5.5Z" stroke="#000629" fill="none" stroke-width="1"></path></g><g transform="translate(494 376)"><path d="M0 -7L6.1 -3.5L6.1 3.5L0 7L-6.1 3.5L-6.1 -3.5Z" stroke="#000629" fill="none" stroke-width="1"></path></g><g transform="translate(526 441)"><path d="M0 -10L8.7 -5L8.7 5L0 10L-8.7 5L-8.7 -5Z" stroke="#000629" fill="none" stroke-width="1"></path></g><g transform="translate(392 253)"><path d="M0 -10L8.7 -5L8.7 5L0 10L-8.7 5L-8.7 -5Z" stroke="#000629" fill="none" stroke-width="1"></path></g><g transform="translate(579 359)"><path d="M0 -10L8.7 -5L8.7 5L0 10L-8.7 5L-8.7 -5Z" stroke="#000629" fill="none" stroke-width="1"></path></g><g transform="translate(150 405)"><path d="M0 -10L8.7 -5L8.7 5L0 10L-8.7 5L-8.7 -5Z" stroke="#000629" fill="none" stroke-width="1"></path></g><g transform="translate(314 457)"><path d="M0 -6L5.2 -3L5.2 3L0 6L-5.2 3L-5.2 -3Z" stroke="#000629" fill="none" stroke-width="1"></path></g><g transform="translate(196 344)"><path d="M0 -6L5.2 -3L5.2 3L0 6L-5.2 3L-5.2 -3Z" stroke="#000629" fill="none" stroke-width="1"></path></g><g transform="translate(473 548)"><path d="M0 -12L10.4 -6L10.4 6L0 12L-10.4 6L-10.4 -6Z" stroke="#000629" fill="none" stroke-width="1"></path></g><g transform="translate(95 151)"><path d="M0 -10L8.7 -5L8.7 5L0 10L-8.7 5L-8.7 -5Z" stroke="#000629" fill="none" stroke-width="1"></path></g><g transform="translate(871 595)"><path d="M0 -7L6.1 -3.5L6.1 3.5L0 7L-6.1 3.5L-6.1 -3.5Z" stroke="#000629" fill="none" stroke-width="1"></path></g><g transform="translate(554 279)"><path d="M0 -6L5.2 -3L5.2 3L0 6L-5.2 3L-5.2 -3Z" stroke="#000629" fill="none" stroke-width="1"></path></g><g transform="translate(801 345)"><path d="M0 -11L9.5 -5.5L9.5 5.5L0 11L-9.5 5.5L-9.5 -5.5Z" stroke="#000629" fill="none" stroke-width="1"></path></g><g transform="translate(592 411)"><path d="M0 -12L10.4 -6L10.4 6L0 12L-10.4 6L-10.4 -6Z" stroke="#000629" fill="none" stroke-width="1"></path></g><g transform="translate(434 571)"><path d="M0 -10L8.7 -5L8.7 5L0 10L-8.7 5L-8.7 -5Z" stroke="#000629" fill="none" stroke-width="1"></path></g><g transform="translate(64 430)"><path d="M0 -7L6.1 -3.5L6.1 3.5L0 7L-6.1 3.5L-6.1 -3.5Z" stroke="#000629" fill="none" stroke-width="1"></path></g><g transform="translate(617 327)"><path d="M0 -12L10.4 -6L10.4 6L0 12L-10.4 6L-10.4 -6Z" stroke="#000629" fill="none" stroke-width="1"></path></g><g transform="translate(162 429)"><path d="M0 -12L10.4 -6L10.4 6L0 12L-10.4 6L-10.4 -6Z" stroke="#000629" fill="none" stroke-width="1"></path></g><g transform="translate(238 219)"><path d="M0 -9L7.8 -4.5L7.8 4.5L0 9L-7.8 4.5L-7.8 -4.5Z" stroke="#000629" fill="none" stroke-width="1"></path></g><g transform="translate(40 292)"><path d="M0 -10L8.7 -5L8.7 5L0 10L-8.7 5L-8.7 -5Z" stroke="#000629" fill="none" stroke-width="1"></path></g><g transform="translate(561 412)"><path d="M0 -7L6.1 -3.5L6.1 3.5L0 7L-6.1 3.5L-6.1 -3.5Z" stroke="#000629" fill="none" stroke-width="1"></path></g><g transform="translate(214 309)"><path d="M0 -10L8.7 -5L8.7 5L0 10L-8.7 5L-8.7 -5Z" stroke="#000629" fill="none" stroke-width="1"></path></g><g transform="translate(243 50)"><path d="M0 -9L7.8 -4.5L7.8 4.5L0 9L-7.8 4.5L-7.8 -4.5Z" stroke="#000629" fill="none" stroke-width="1"></path></g><g transform="translate(420 245)"><path d="M0 -8L6.9 -4L6.9 4L0 8L-6.9 4L-6.9 -4Z" stroke="#000629" fill="none" stroke-width="1"></path></g><g transform="translate(564 145)"><path d="M0 -6L5.2 -3L5.2 3L0 6L-5.2 3L-5.2 -3Z" stroke="#000629" fill="none" stroke-width="1"></path></g><g transform="translate(377 190)"><path d="M0 -6L5.2 -3L5.2 3L0 6L-5.2 3L-5.2 -3Z" stroke="#000629" fill="none" stroke-width="1"></path></g><g transform="translate(507 521)"><path d="M0 -8L6.9 -4L6.9 4L0 8L-6.9 4L-6.9 -4Z" stroke="#000629" fill="none" stroke-width="1"></path></g><g transform="translate(124 474)"><path d="M0 -10L8.7 -5L8.7 5L0 10L-8.7 5L-8.7 -5Z" stroke="#000629" fill="none" stroke-width="1"></path></g><g transform="translate(312 312)"><path d="M0 -7L6.1 -3.5L6.1 3.5L0 7L-6.1 3.5L-6.1 -3.5Z" stroke="#000629" fill="none" stroke-width="1"></path></g><g transform="translate(739 46)"><path d="M0 -10L8.7 -5L8.7 5L0 10L-8.7 5L-8.7 -5Z" stroke="#000629" fill="none" stroke-width="1"></path></g><g transform="translate(574 592)"><path d="M0 -6L5.2 -3L5.2 3L0 6L-5.2 3L-5.2 -3Z" stroke="#000629" fill="none" stroke-width="1"></path></g><g transform="translate(129 4)"><path d="M0 -8L6.9 -4L6.9 4L0 8L-6.9 4L-6.9 -4Z" stroke="#000629" fill="none" stroke-width="1"></path></g><g transform="translate(702 114)"><path d="M0 -12L10.4 -6L10.4 6L0 12L-10.4 6L-10.4 -6Z" stroke="#000629" fill="none" stroke-width="1"></path></g><g transform="translate(2 401)"><path d="M0 -8L6.9 -4L6.9 4L0 8L-6.9 4L-6.9 -4Z" stroke="#000629" fill="none" stroke-width="1"></path></g><g transform="translate(2 179)"><path d="M0 -8L6.9 -4L6.9 4L0 8L-6.9 4L-6.9 -4Z" stroke="#000629" fill="none" stroke-width="1"></path></g><g transform="translate(74 599)"><path d="M0 -6L5.2 -3L5.2 3L0 6L-5.2 3L-5.2 -3Z" stroke="#000629" fill="none" stroke-width="1"></path></g><g transform="translate(279 351)"><path d="M0 -8L6.9 -4L6.9 4L0 8L-6.9 4L-6.9 -4Z" stroke="#000629" fill="none" stroke-width="1"></path></g><g transform="translate(109 236)"><path d="M0 -10L8.7 -5L8.7 5L0 10L-8.7 5L-8.7 -5Z" stroke="#000629" fill="none" stroke-width="1"></path></g><g transform="translate(445 532)"><path d="M0 -7L6.1 -3.5L6.1 3.5L0 7L-6.1 3.5L-6.1 -3.5Z" stroke="#000629" fill="none" stroke-width="1"></path></g><g transform="translate(409 7)"><path d="M0 -7L6.1 -3.5L6.1 3.5L0 7L-6.1 3.5L-6.1 -3.5Z" stroke="#000629" fill="none" stroke-width="1"></path></g><g transform="translate(157 75)"><path d="M0 -9L7.8 -4.5L7.8 4.5L0 9L-7.8 4.5L-7.8 -4.5Z" stroke="#000629" fill="none" stroke-width="1"></path></g><g transform="translate(232 78)"><path d="M0 -7L6.1 -3.5L6.1 3.5L0 7L-6.1 3.5L-6.1 -3.5Z" stroke="#000629" fill="none" stroke-width="1"></path></g><g transform="translate(685 545)"><path d="M0 -7L6.1 -3.5L6.1 3.5L0 7L-6.1 3.5L-6.1 -3.5Z" stroke="#000629" fill="none" stroke-width="1"></path></g><g transform="translate(522 478)"><path d="M0 -10L8.7 -5L8.7 5L0 10L-8.7 5L-8.7 -5Z" stroke="#000629" fill="none" stroke-width="1"></path></g><g transform="translate(741 11)"><path d="M0 -8L6.9 -4L6.9 4L0 8L-6.9 4L-6.9 -4Z" stroke="#000629" fill="none" stroke-width="1"></path></g><g transform="translate(650 2)"><path d="M0 -12L10.4 -6L10.4 6L0 12L-10.4 6L-10.4 -6Z" stroke="#000629" fill="none" stroke-width="1"></path></g><g transform="translate(649 599)"><path d="M0 -10L8.7 -5L8.7 5L0 10L-8.7 5L-8.7 -5Z" stroke="#000629" fill="none" stroke-width="1"></path></g><g transform="translate(328 343)"><path d="M0 -10L8.7 -5L8.7 5L0 10L-8.7 5L-8.7 -5Z" stroke="#000629" fill="none" stroke-width="1"></path></g><g transform="translate(627 399)"><path d="M0 -6L5.2 -3L5.2 3L0 6L-5.2 3L-5.2 -3Z" stroke="#000629" fill="none" stroke-width="1"></path></g><g transform="translate(692 385)"><path d="M0 -7L6.1 -3.5L6.1 3.5L0 7L-6.1 3.5L-6.1 -3.5Z" stroke="#000629" fill="none" stroke-width="1"></path></g><g transform="translate(818 219)"><path d="M0 -11L9.5 -5.5L9.5 5.5L0 11L-9.5 5.5L-9.5 -5.5Z" stroke="#000629" fill="none" stroke-width="1"></path></g><g transform="translate(875 79)"><path d="M0 -8L6.9 -4L6.9 4L0 8L-6.9 4L-6.9 -4Z" stroke="#000629" fill="none" stroke-width="1"></path></g><g transform="translate(388 223)"><path d="M0 -10L8.7 -5L8.7 5L0 10L-8.7 5L-8.7 -5Z" stroke="#000629" fill="none" stroke-width="1"></path></g><g transform="translate(458 22)"><path d="M0 -11L9.5 -5.5L9.5 5.5L0 11L-9.5 5.5L-9.5 -5.5Z" stroke="#000629" fill="none" stroke-width="1"></path></g><g transform="translate(59 207)"><path d="M0 -7L6.1 -3.5L6.1 3.5L0 7L-6.1 3.5L-6.1 -3.5Z" stroke="#000629" fill="none" stroke-width="1"></path></g><g transform="translate(576 27)"><path d="M0 -7L6.1 -3.5L6.1 3.5L0 7L-6.1 3.5L-6.1 -3.5Z" stroke="#000629" fill="none" stroke-width="1"></path></g><g transform="translate(476 404)"><path d="M0 -10L8.7 -5L8.7 5L0 10L-8.7 5L-8.7 -5Z" stroke="#000629" fill="none" stroke-width="1"></path></g><g transform="translate(603 36)"><path d="M0 -12L10.4 -6L10.4 6L0 12L-10.4 6L-10.4 -6Z" stroke="#000629" fill="none" stroke-width="1"></path></g><g transform="translate(593 463)"><path d="M0 -11L9.5 -5.5L9.5 5.5L0 11L-9.5 5.5L-9.5 -5.5Z" stroke="#000629" fill="none" stroke-width="1"></path></g><g transform="translate(805 502)"><path d="M0 -10L8.7 -5L8.7 5L0 10L-8.7 5L-8.7 -5Z" stroke="#000629" fill="none" stroke-width="1"></path></g><g transform="translate(177 55)"><path d="M0 -6L5.2 -3L5.2 3L0 6L-5.2 3L-5.2 -3Z" stroke="#000629" fill="none" stroke-width="1"></path></g><g transform="translate(678 1)"><path d="M0 -11L9.5 -5.5L9.5 5.5L0 11L-9.5 5.5L-9.5 -5.5Z" stroke="#000629" fill="none" stroke-width="1"></path></g><g transform="translate(291 91)"><path d="M0 -12L10.4 -6L10.4 6L0 12L-10.4 6L-10.4 -6Z" stroke="#000629" fill="none" stroke-width="1"></path></g><g transform="translate(759 99)"><path d="M0 -7L6.1 -3.5L6.1 3.5L0 7L-6.1 3.5L-6.1 -3.5Z" stroke="#000629" fill="none" stroke-width="1"></path></g><g transform="translate(230 580)"><path d="M0 -8L6.9 -4L6.9 4L0 8L-6.9 4L-6.9 -4Z" stroke="#000629" fill="none" stroke-width="1"></path></g><g transform="translate(800 295)"><path d="M0 -11L9.5 -5.5L9.5 5.5L0 11L-9.5 5.5L-9.5 -5.5Z" stroke="#000629" fill="none" stroke-width="1"></path></g><g transform="translate(457 595)"><path d="M0 -9L7.8 -4.5L7.8 4.5L0 9L-7.8 4.5L-7.8 -4.5Z" stroke="#000629" fill="none" stroke-width="1"></path></g><g transform="translate(2 78)"><path d="M0 -6L5.2 -3L5.2 3L0 6L-5.2 3L-5.2 -3Z" stroke="#000629" fill="none" stroke-width="1"></path></g><g transform="translate(351 378)"><path d="M0 -6L5.2 -3L5.2 3L0 6L-5.2 3L-5.2 -3Z" stroke="#000629" fill="none" stroke-width="1"></path></g><g transform="translate(746 510)"><path d="M0 -8L6.9 -4L6.9 4L0 8L-6.9 4L-6.9 -4Z" stroke="#000629" fill="none" stroke-width="1"></path></g><g transform="translate(211 249)"><path d="M0 -10L8.7 -5L8.7 5L0 10L-8.7 5L-8.7 -5Z" stroke="#000629" fill="none" stroke-width="1"></path></g><g transform="translate(569 107)"><path d="M0 -12L10.4 -6L10.4 6L0 12L-10.4 6L-10.4 -6Z" stroke="#000629" fill="none" stroke-width="1"></path></g><g transform="translate(844 212)"><path d="M0 -12L10.4 -6L10.4 6L0 12L-10.4 6L-10.4 -6Z" stroke="#000629" fill="none" stroke-width="1"></path></g><g transform="translate(428 343)"><path d="M0 -9L7.8 -4.5L7.8 4.5L0 9L-7.8 4.5L-7.8 -4.5Z" stroke="#000629" fill="none" stroke-width="1"></path></g><g transform="translate(121 333)"><path d="M0 -7L6.1 -3.5L6.1 3.5L0 7L-6.1 3.5L-6.1 -3.5Z" stroke="#000629" fill="none" stroke-width="1"></path></g><g transform="translate(55 74)"><path d="M0 -11L9.5 -5.5L9.5 5.5L0 11L-9.5 5.5L-9.5 -5.5Z" stroke="#000629" fill="none" stroke-width="1"></path></g><g transform="translate(577 560)"><path d="M0 -12L10.4 -6L10.4 6L0 12L-10.4 6L-10.4 -6Z" stroke="#000629" fill="none" stroke-width="1"></path></g><g transform="translate(210 493)"><path d="M0 -7L6.1 -3.5L6.1 3.5L0 7L-6.1 3.5L-6.1 -3.5Z" stroke="#000629" fill="none" stroke-width="1"></path></g><g transform="translate(38 318)"><path d="M0 -6L5.2 -3L5.2 3L0 6L-5.2 3L-5.2 -3Z" stroke="#000629" fill="none" stroke-width="1"></path></g><g transform="translate(725 559)"><path d="M0 -7L6.1 -3.5L6.1 3.5L0 7L-6.1 3.5L-6.1 -3.5Z" stroke="#000629" fill="none" stroke-width="1"></path></g><g transform="translate(467 373)"><path d="M0 -8L6.9 -4L6.9 4L0 8L-6.9 4L-6.9 -4Z" stroke="#000629" fill="none" stroke-width="1"></path></g><g transform="translate(623 299)"><path d="M0 -11L9.5 -5.5L9.5 5.5L0 11L-9.5 5.5L-9.5 -5.5Z" stroke="#000629" fill="none" stroke-width="1"></path></g><g transform="translate(744 394)"><path d="M0 -7L6.1 -3.5L6.1 3.5L0 7L-6.1 3.5L-6.1 -3.5Z" stroke="#000629" fill="none" stroke-width="1"></path></g><g transform="translate(897 378)"><path d="M0 -12L10.4 -6L10.4 6L0 12L-10.4 6L-10.4 -6Z" stroke="#000629" fill="none" stroke-width="1"></path></g><g transform="translate(282 43)"><path d="M0 -8L6.9 -4L6.9 4L0 8L-6.9 4L-6.9 -4Z" stroke="#000629" fill="none" stroke-width="1"></path></g><g transform="translate(673 585)"><path d="M0 -10L8.7 -5L8.7 5L0 10L-8.7 5L-8.7 -5Z" stroke="#000629" fill="none" stroke-width="1"></path></g><g transform="translate(498 494)"><path d="M0 -7L6.1 -3.5L6.1 3.5L0 7L-6.1 3.5L-6.1 -3.5Z" stroke="#000629" fill="none" stroke-width="1"></path></g><g transform="translate(758 418)"><path d="M0 -8L6.9 -4L6.9 4L0 8L-6.9 4L-6.9 -4Z" stroke="#000629" fill="none" stroke-width="1"></path></g><g transform="translate(510 88)"><path d="M0 -6L5.2 -3L5.2 3L0 6L-5.2 3L-5.2 -3Z" stroke="#000629" fill="none" stroke-width="1"></path></g><g transform="translate(853 107)"><path d="M0 -7L6.1 -3.5L6.1 3.5L0 7L-6.1 3.5L-6.1 -3.5Z" stroke="#000629" fill="none" stroke-width="1"></path></g><g transform="translate(69 369)"><path d="M0 -8L6.9 -4L6.9 4L0 8L-6.9 4L-6.9 -4Z" stroke="#000629" fill="none" stroke-width="1"></path></g><g transform="translate(608 353)"><path d="M0 -8L6.9 -4L6.9 4L0 8L-6.9 4L-6.9 -4Z" stroke="#000629" fill="none" stroke-width="1"></path></g><g transform="translate(331 62)"><path d="M0 -12L10.4 -6L10.4 6L0 12L-10.4 6L-10.4 -6Z" stroke="#000629" fill="none" stroke-width="1"></path></g><g transform="translate(578 209)"><path d="M0 -7L6.1 -3.5L6.1 3.5L0 7L-6.1 3.5L-6.1 -3.5Z" stroke="#000629" fill="none" stroke-width="1"></path></g><g transform="translate(856 42)"><path d="M0 -11L9.5 -5.5L9.5 5.5L0 11L-9.5 5.5L-9.5 -5.5Z" stroke="#000629" fill="none" stroke-width="1"></path></g><g transform="translate(310 483)"><path d="M0 -10L8.7 -5L8.7 5L0 10L-8.7 5L-8.7 -5Z" stroke="#000629" fill="none" stroke-width="1"></path></g><g transform="translate(428 598)"><path d="M0 -6L5.2 -3L5.2 3L0 6L-5.2 3L-5.2 -3Z" stroke="#000629" fill="none" stroke-width="1"></path></g><g transform="translate(837 336)"><path d="M0 -10L8.7 -5L8.7 5L0 10L-8.7 5L-8.7 -5Z" stroke="#000629" fill="none" stroke-width="1"></path></g><g transform="translate(899 162)"><path d="M0 -8L6.9 -4L6.9 4L0 8L-6.9 4L-6.9 -4Z" stroke="#000629" fill="none" stroke-width="1"></path></g><g transform="translate(143 238)"><path d="M0 -9L7.8 -4.5L7.8 4.5L0 9L-7.8 4.5L-7.8 -4.5Z" stroke="#000629" fill="none" stroke-width="1"></path></g><g transform="translate(546 598)"><path d="M0 -7L6.1 -3.5L6.1 3.5L0 7L-6.1 3.5L-6.1 -3.5Z" stroke="#000629" fill="none" stroke-width="1"></path></g><g transform="translate(2 207)"><path d="M0 -7L6.1 -3.5L6.1 3.5L0 7L-6.1 3.5L-6.1 -3.5Z" stroke="#000629" fill="none" stroke-width="1"></path></g><g transform="translate(764 59)"><path d="M0 -6L5.2 -3L5.2 3L0 6L-5.2 3L-5.2 -3Z" stroke="#000629" fill="none" stroke-width="1"></path></g><g transform="translate(546 464)"><path d="M0 -7L6.1 -3.5L6.1 3.5L0 7L-6.1 3.5L-6.1 -3.5Z" stroke="#000629" fill="none" stroke-width="1"></path></g><g transform="translate(175 139)"><path d="M0 -10L8.7 -5L8.7 5L0 10L-8.7 5L-8.7 -5Z" stroke="#000629" fill="none" stroke-width="1"></path></g><g transform="translate(88 260)"><path d="M0 -10L8.7 -5L8.7 5L0 10L-8.7 5L-8.7 -5Z" stroke="#000629" fill="none" stroke-width="1"></path></g><g transform="translate(127 69)"><path d="M0 -6L5.2 -3L5.2 3L0 6L-5.2 3L-5.2 -3Z" stroke="#000629" fill="none" stroke-width="1"></path></g><g transform="translate(423 514)"><path d="M0 -7L6.1 -3.5L6.1 3.5L0 7L-6.1 3.5L-6.1 -3.5Z" stroke="#000629" fill="none" stroke-width="1"></path></g><g transform="translate(529 291)"><path d="M0 -12L10.4 -6L10.4 6L0 12L-10.4 6L-10.4 -6Z" stroke="#000629" fill="none" stroke-width="1"></path></g><g transform="translate(898 239)"><path d="M0 -11L9.5 -5.5L9.5 5.5L0 11L-9.5 5.5L-9.5 -5.5Z" stroke="#000629" fill="none" stroke-width="1"></path></g><g transform="translate(326 264)"><path d="M0 -12L10.4 -6L10.4 6L0 12L-10.4 6L-10.4 -6Z" stroke="#000629" fill="none" stroke-width="1"></path></g><g transform="translate(4 560)"><path d="M0 -9L7.8 -4.5L7.8 4.5L0 9L-7.8 4.5L-7.8 -4.5Z" stroke="#000629" fill="none" stroke-width="1"></path></g><g transform="translate(288 464)"><path d="M0 -8L6.9 -4L6.9 4L0 8L-6.9 4L-6.9 -4Z" stroke="#000629" fill="none" stroke-width="1"></path></g><g transform="translate(220 402)"><path d="M0 -8L6.9 -4L6.9 4L0 8L-6.9 4L-6.9 -4Z" stroke="#000629" fill="none" stroke-width="1"></path></g><g transform="translate(626 513)"><path d="M0 -7L6.1 -3.5L6.1 3.5L0 7L-6.1 3.5L-6.1 -3.5Z" stroke="#000629" fill="none" stroke-width="1"></path></g><g transform="translate(423 66)"><path d="M0 -12L10.4 -6L10.4 6L0 12L-10.4 6L-10.4 -6Z" stroke="#000629" fill="none" stroke-width="1"></path></g><g transform="translate(239 296)"><path d="M0 -12L10.4 -6L10.4 6L0 12L-10.4 6L-10.4 -6Z" stroke="#000629" fill="none" stroke-width="1"></path></g></g></svg>